<svg xmlns="http://www.w3.org/2000/svg" width="24" height="24" viewBox="0 0 24 24"><defs><clipPath id="ab55a"><path d="M11 13.714l-.007-3H8v3zM5.5 8.657h13v9.463c0 .738-.582 1.337-1.3 1.337H6.8c-.718 0-1.3-.599-1.3-1.337zM4 7.423V18.12C4 19.71 5.254 21 6.8 21h10.4c1.546 0 2.8-1.29 2.8-2.88V7.423c0-1.59-1.254-2.88-2.8-2.88h-.7V3.4a.4.4 0 0 0-.4-.4h-1.2a.4.4 0 0 0-.4.4v1.143h-5V3.4a.4.4 0 0 0-.4-.4H7.9a.4.4 0 0 0-.4.4v1.143h-.7c-1.546 0-2.8 1.29-2.8 2.88z"/></clipPath></defs><g><g><g/><g><path fill="#979797" d="M11 13.714l-.007-3H8v3zM5.5 8.657h13v9.463c0 .738-.582 1.337-1.3 1.337H6.8c-.718 0-1.3-.599-1.3-1.337zM4 7.423V18.12C4 19.71 5.254 21 6.8 21h10.4c1.546 0 2.8-1.29 2.8-2.88V7.423c0-1.59-1.254-2.88-2.8-2.88h-.7V3.4a.4.4 0 0 0-.4-.4h-1.2a.4.4 0 0 0-.4.4v1.143h-5V3.4a.4.4 0 0 0-.4-.4H7.9a.4.4 0 0 0-.4.4v1.143h-.7c-1.546 0-2.8 1.29-2.8 2.88z"/></g><g clip-path="url(#ab55a)"><g><path fill="#99a9bb" d="M0 0h24v24H0z"/></g></g></g></g></svg>