<svg xmlns="http://www.w3.org/2000/svg" width="20" height="20" viewBox="0 0 20 20"><defs><clipPath id="zti5a"><path fill="#fff" d="M0 10C0 4.477 4.477 0 10 0s10 4.477 10 10-4.477 10-10 10S0 15.523 0 10z"/></clipPath><clipPath id="zti5b"><path fill="#fff" d="M15 9.25v1.5H5v-1.5z"/></clipPath><clipPath id="zti5c"><path d="M15 9.25v1.5H5v-1.5z"/></clipPath></defs><g><g><path fill="#fff" d="M0 10C0 4.477 4.477 0 10 0s10 4.477 10 10-4.477 10-10 10S0 15.523 0 10z"/><path fill="none" stroke="#8bc640" stroke-miterlimit="50" stroke-width="2" d="M0 10C0 4.477 4.477 0 10 0h0c5.523 0 10 4.477 10 10v0c0 5.523-4.477 10-10 10h0C4.477 20 0 15.523 0 10z" clip-path="url(&quot;#zti5a&quot;)"/></g><g><g/><g><path fill="#d8d8d8" d="M15 9.25v1.5H5v-1.5z"/><path fill="none" stroke="#979797" stroke-miterlimit="50" stroke-width="2" d="M15 9.25v1.5H5v0-1.5 0z" clip-path="url(&quot;#zti5b&quot;)"/></g><g clip-path="url(#zti5c)"><g><path fill="#8bc640" d="M-2-2h24v24H-2z"/></g></g></g></g></svg>