<svg xmlns="http://www.w3.org/2000/svg" width="24" height="24" viewBox="0 0 24 24"><defs><clipPath id="lre8a"><path d="M16.497 5.813a.24.24 0 0 0 0-.35L14.37 3.43a.267.267 0 0 0-.365 0L12.79 4.59l2.492 2.384zM6.216 15.648l7.97-7.625-2.491-2.384-8.024 7.676v2.61zm-4.094 1.106v-3.746c0-.197.081-.385.227-.524L12.909 2.38a1.866 1.866 0 0 1 2.557 0l2.126 2.034c.706.675.706 1.77 0 2.446L7.12 16.879a.79.79 0 0 1-.46.213l-3.676.398c-.46.05-.862-.294-.862-.736zm19.77 3.582c0 .36-.303.704-.69.704H2.852c-.37 0-.742-.384-.742-.744s.355-.745.742-.745l18.334.065c.386 0 .706.36.706.72z"/></clipPath></defs><g><g><g><g/><g><path d="M16.497 5.813a.24.24 0 0 0 0-.35L14.37 3.43a.267.267 0 0 0-.365 0L12.79 4.59l2.492 2.384zM6.216 15.648l7.97-7.625-2.491-2.384-8.024 7.676v2.61zm-4.094 1.106v-3.746c0-.197.081-.385.227-.524L12.909 2.38a1.866 1.866 0 0 1 2.557 0l2.126 2.034c.706.675.706 1.77 0 2.446L7.12 16.879a.79.79 0 0 1-.46.213l-3.676.398c-.46.05-.862-.294-.862-.736zm19.77 3.582c0 .36-.303.704-.69.704H2.852c-.37 0-.742-.384-.742-.744s.355-.745.742-.745l18.334.065c.386 0 .706.36.706.72z"/></g><g clip-path="url(#lre8a)"><g><path fill="#99a9bb" d="M0-.02h24v22.96H0z"/></g></g></g></g></g></svg>