<svg xmlns="http://www.w3.org/2000/svg" width="16" height="16" viewBox="0 0 16 16"><defs><clipPath id="mtcfa"><path d="M7.254 9.425l6.38-6.384v1.946a.5.5 0 0 0 1 0V1.834a.498.498 0 0 0-.5-.5h-3.257a.5.5 0 0 0 0 1h2.051L6.546 8.717a.5.5 0 0 0 .708.707zm1.748-7.579a.513.513 0 0 0-.513-.513H3.077c-.963 0-1.744.781-1.744 1.744v9.846c0 .963.781 1.744 1.744 1.744h9.846c.963 0 1.744-.781 1.744-1.744V7.252a.513.513 0 0 0-1.026 0v5.671a.718.718 0 0 1-.718.718H3.077a.718.718 0 0 1-.718-.718V3.077c0-.397.321-.718.718-.718h5.412c.283 0 .513-.23.513-.513z"/></clipPath></defs><g><g><g><g/><g><path fill="#979797" d="M7.254 9.425l6.38-6.384v1.946a.5.5 0 0 0 1 0V1.834a.498.498 0 0 0-.5-.5h-3.257a.5.5 0 0 0 0 1h2.051L6.546 8.717a.5.5 0 0 0 .708.707zm1.748-7.579a.513.513 0 0 0-.513-.513H3.077c-.963 0-1.744.781-1.744 1.744v9.846c0 .963.781 1.744 1.744 1.744h9.846c.963 0 1.744-.781 1.744-1.744V7.252a.513.513 0 0 0-1.026 0v5.671a.718.718 0 0 1-.718.718H3.077a.718.718 0 0 1-.718-.718V3.077c0-.397.321-.718.718-.718h5.412c.283 0 .513-.23.513-.513z"/></g><g clip-path="url(#mtcfa)"><g><path fill="#99a9bb" d="M0 0h16v16H0z"/></g></g></g></g></g></svg>