<svg xmlns="http://www.w3.org/2000/svg" width="16" height="16" viewBox="0 0 16 16"><defs><clipPath id="7o5xa"><path d="M1.333 8a6.667 6.667 0 1 1 13.334 0A6.667 6.667 0 0 1 1.333 8zm12.334 0A5.667 5.667 0 1 0 2.333 8a5.667 5.667 0 0 0 11.334 0zm-6.2-1.967a.5.5 0 1 1 1 0 .5.5 0 0 1-1 0zm0 1.667a.5.5 0 0 1 1 0v2.333a.5.5 0 0 1-1 0z"/></clipPath></defs><g><g><g><g/><g><path fill="#979797" d="M1.333 8a6.667 6.667 0 1 1 13.334 0A6.667 6.667 0 0 1 1.333 8zm12.334 0A5.667 5.667 0 1 0 2.333 8a5.667 5.667 0 0 0 11.334 0zm-6.2-1.967a.5.5 0 1 1 1 0 .5.5 0 0 1-1 0zm0 1.667a.5.5 0 0 1 1 0v2.333a.5.5 0 0 1-1 0z"/></g><g clip-path="url(#7o5xa)"><g><path fill="#99a9bb" d="M0 0h16v16H0z"/></g></g></g></g></g></svg>