<svg width="920" height="800" xmlns="http://www.w3.org/2000/svg" xmlns:xlink="http://www.w3.org/1999/xlink">
    <defs>
        <linearGradient x1="27.893%" y1="12.193%" x2="69.89%" y2="87.807%" id="a">
            <stop stop-color="#A2AFC5" offset="0%"/>
            <stop stop-color="#6D809D" offset="100%"/>
        </linearGradient>
        <path id="b" d="M0 0h920v800H0z"/>
        <linearGradient x1="12.651%" y1="12.193%" x2="93.181%" y2="87.807%" id="d">
            <stop stop-color="#2678DC" offset="0%"/>
            <stop stop-color="#0645B8" offset="100%"/>
        </linearGradient>
        <path id="c" d="M0 0h920v800H0z"/>
        <path d="M29.216 8C-14.67 35.408 2.36 88.624 14.426 111.925c5.942 11.477 0 30.126-5.426 50.44-2.193 8.212-1.895 17.184-2.166 26.033-.28 9.153 2.505 17.147 5.92 26.102 1.63 4.276 2.75 9.724 4.976 13.839 5.675 10.495 17.415 17.75 32.383 23.345C72.818 260.171 102.356 263.041 129 255c25.264-7.625 49-24.446 58.293-54.118 3.054-9.75 5.207-17.546 7.064-26.372C207.643 111.37 178.615 73.66 165 60c-8.955-8.984-35.764-24.616-62-47.405C88.5 0 49-4.356 29.216 8z" id="f"/>
        <path d="M25.355 6.16C-1.328 22.783-2.635 51.12 3.684 72.245c2.125 7.104 7.188 13.391 9.655 18.143 4.828 9.302 8.54 36.912-4.409 40.88-6.93 2.125-3.71 13.928-3.93 21.1-.228 7.418 5.556 12.632 6.98 21.155.633 3.788 18.193 25.602 30.355 30.137 18.447 6.878 42.447 9.204 64.095 2.687 11.232-3.381 22.8-7.017 31.57-15.347 7.257-6.893 10-17.477 15.793-28.514 3.694-7.038 4.23-14.22 5.74-21.374 2.003-9.498 6.532-18.286 6.468-26.371-.287-35.476-21.312-57.42-30.321-66.437-7.276-7.28-29.058-19.95-50.375-38.42C73.524-.324 41.43-3.854 25.355 6.16z" id="h"/>
        <rect id="k" width="288" height="340" rx="10"/>
        <filter x="-20.5%" y="-17.4%" width="150.7%" height="142.9%" filterUnits="objectBoundingBox" id="j">
            <feOffset dx="14" dy="14" in="SourceAlpha" result="shadowOffsetOuter1"/>
            <feGaussianBlur stdDeviation="22" in="shadowOffsetOuter1" result="shadowBlurOuter1"/>
            <feColorMatrix values="0 0 0 0 0.344215485 0 0 0 0 0.402821355 0 0 0 0 0.492272418 0 0 0 0.513658217 0" in="shadowBlurOuter1"/>
        </filter>
        <circle id="l" cx="22.5" cy="22.5" r="22.5"/>
        <rect id="o" width="225" height="90" rx="10"/>
        <filter x="-26.2%" y="-65.6%" width="164.9%" height="262.2%" filterUnits="objectBoundingBox" id="n">
            <feOffset dx="14" dy="14" in="SourceAlpha" result="shadowOffsetOuter1"/>
            <feGaussianBlur stdDeviation="22" in="shadowOffsetOuter1" result="shadowBlurOuter1"/>
            <feColorMatrix values="0 0 0 0 0.344215485 0 0 0 0 0.402821355 0 0 0 0 0.492272418 0 0 0 0.186625874 0" in="shadowBlurOuter1"/>
        </filter>
        <circle id="p" cx="26.5" cy="26.5" r="26.5"/>
        <rect id="s" width="267" height="138" rx="10"/>
        <filter x="-22.1%" y="-42.8%" width="154.7%" height="205.8%" filterUnits="objectBoundingBox" id="r">
            <feOffset dx="14" dy="14" in="SourceAlpha" result="shadowOffsetOuter1"/>
            <feGaussianBlur stdDeviation="22" in="shadowOffsetOuter1" result="shadowBlurOuter1"/>
            <feColorMatrix values="0 0 0 0 0.344215485 0 0 0 0 0.402821355 0 0 0 0 0.492272418 0 0 0 0.513658217 0" in="shadowBlurOuter1"/>
        </filter>
        <circle id="t" cx="22.5" cy="22.5" r="22.5"/>
    </defs>
    <g fill="none" fill-rule="evenodd">
        <use fill="url(#a)" xlink:href="#b"/>
        <mask id="e" fill="#fff">
            <use xlink:href="#c"/>
        </mask>
        <use fill="url(#d)" xlink:href="#c"/>
        <circle fill="#8BC640" mask="url(#e)" cx="393" cy="722" r="4"/>
        <circle fill="#FFC200" mask="url(#e)" cx="410" cy="741" r="6"/>
        <g mask="url(#e)">
            <g transform="translate(531 112)">
                <g transform="rotate(23 113.026 560.206)">
                    <path d="M16 26.98l13.97-5.987L16 15.007v4.656l9.978 1.33L16 22.323z" fill="#FFF" fill-rule="nonzero"/>
                    <circle stroke="#FFF" opacity=".5" cx="21" cy="21" r="21"/>
                </g>
                <circle fill="#FFF" cx="5" cy="99.907" r="5"/>
                <path d="M11.4 88.82c21.404-34.905 48.733-58.876 81.989-71.913 36.667-14.374 78.204-14.54 124.611-.5" stroke="#FFF" opacity=".5" stroke-dasharray="8"/>
            </g>
        </g>
        <g mask="url(#e)">
            <g transform="translate(268 507)">
                <circle fill="#FFF" cx="273" cy="145" r="5"/>
                <circle fill="#FFF" cx="60" cy="5" r="5"/>
                <path d="M49.828 11.554C22.736 30.708 0 60.947 0 93c0 36 63.341 26 89.42 26 26.077 0 44.35 49 81.465 62 23.151 8.11 54.002-1.875 92.553-29.951" stroke="#FFF" opacity=".5" stroke-dasharray="8"/>
                <g transform="translate(63 100)">
                    <circle stroke-opacity=".5" stroke="#FFF" fill="#135AC7" cx="21" cy="21" r="21"/>
                    <path d="M17.487 17.561a.444.444 0 0 1 .234.58l-3.107 7.318a.442.442 0 0 1-.579.234l-1.626-.69a.442.442 0 0 1-.234-.58l3.106-7.318a.442.442 0 0 1 .58-.234l1.626.69zm9.405 3.993c1.006.643.692 2.245-.488 2.445a1.337 1.337 0 0 1-1.097 1.454 1.337 1.337 0 0 1-1.097 1.453c.113.99-.92 1.756-1.834 1.367L15.6 25.397l2.761-6.505s2.715-.943 3.608-1.291c.511-.2.945-.57 1.249-1.026.12-.179.196-.389.375-.52a.737.737 0 0 1 .546-.135c.333.052.675.281.881.537.634.786.303 2.1-.335 2.781l-.924.987s3.07 1.29 3.13 1.329z" fill="#FFF" fill-rule="nonzero"/>
                </g>
            </g>
        </g>
        <text mask="url(#e)" font-family="Helvetica" font-size="18" fill="#FFF">
            <tspan x="80" y="68">Match your clients in few clicks</tspan>
        </text>
        <g mask="url(#e)">
            <g transform="matrix(-1 0 0 1 150 503)">
                <mask id="g" fill="#fff">
                    <use xlink:href="#f"/>
                </mask>
                <path d="M-119.5 8a1.5 1.5 0 1 1 0-3 1.5 1.5 0 0 1 0 3zm13 0a1.5 1.5 0 1 1 0-3 1.5 1.5 0 0 1 0 3zm13 0a1.5 1.5 0 1 1 0-3 1.5 1.5 0 0 1 0 3zm13 0a1.5 1.5 0 1 1 0-3 1.5 1.5 0 0 1 0 3zm13 0a1.5 1.5 0 1 1 0-3 1.5 1.5 0 0 1 0 3zm13 0a1.5 1.5 0 1 1 0-3 1.5 1.5 0 0 1 0 3zm13 0a1.5 1.5 0 1 1 0-3 1.5 1.5 0 0 1 0 3zm13 0a1.5 1.5 0 1 1 0-3 1.5 1.5 0 0 1 0 3zm13 0a1.5 1.5 0 1 1 0-3 1.5 1.5 0 0 1 0 3zm13 0a1.5 1.5 0 1 1 0-3 1.5 1.5 0 0 1 0 3zm13 0a1.5 1.5 0 1 1 0-3 1.5 1.5 0 0 1 0 3zm13 0a1.5 1.5 0 1 1 0-3 1.5 1.5 0 0 1 0 3zm13 0a1.5 1.5 0 1 1 0-3 1.5 1.5 0 0 1 0 3zm13 0a1.5 1.5 0 1 1 0-3 1.5 1.5 0 0 1 0 3zm13 0a1.5 1.5 0 1 1 0-3 1.5 1.5 0 0 1 0 3zm13 0a1.5 1.5 0 1 1 0-3 1.5 1.5 0 0 1 0 3zm13 0a1.5 1.5 0 1 1 0-3 1.5 1.5 0 0 1 0 3zm13 0a1.5 1.5 0 1 1 0-3 1.5 1.5 0 0 1 0 3zm13 0a1.5 1.5 0 1 1 0-3 1.5 1.5 0 0 1 0 3zm13 0a1.5 1.5 0 1 1 0-3 1.5 1.5 0 0 1 0 3zm13 0a1.5 1.5 0 1 1 0-3 1.5 1.5 0 0 1 0 3zm13 0a1.5 1.5 0 1 1 0-3 1.5 1.5 0 0 1 0 3zm13 0a1.5 1.5 0 1 1 0-3 1.5 1.5 0 0 1 0 3zm13 0a1.5 1.5 0 1 1 0-3 1.5 1.5 0 0 1 0 3zm13 0a1.5 1.5 0 1 1 0-3 1.5 1.5 0 0 1 0 3zm13 0a1.5 1.5 0 1 1 0-3 1.5 1.5 0 0 1 0 3zm13 0a1.5 1.5 0 1 1 0-3 1.5 1.5 0 0 1 0 3zm13 0a1.5 1.5 0 1 1 0-3 1.5 1.5 0 0 1 0 3zm13 0a1.5 1.5 0 1 1 0-3 1.5 1.5 0 0 1 0 3zm13 0a1.5 1.5 0 1 1 0-3 1.5 1.5 0 0 1 0 3zm13 0a1.5 1.5 0 1 1 0-3 1.5 1.5 0 0 1 0 3zm13 0a1.5 1.5 0 1 1 0-3 1.5 1.5 0 0 1 0 3zm13 0a1.5 1.5 0 1 1 0-3 1.5 1.5 0 0 1 0 3zm13 0a1.5 1.5 0 1 1 0-3 1.5 1.5 0 0 1 0 3zm13 0a1.5 1.5 0 1 1 0-3 1.5 1.5 0 0 1 0 3zm-442 13a1.5 1.5 0 1 1 0-3 1.5 1.5 0 0 1 0 3zm13 0a1.5 1.5 0 1 1 0-3 1.5 1.5 0 0 1 0 3zm13 0a1.5 1.5 0 1 1 0-3 1.5 1.5 0 0 1 0 3zm13 0a1.5 1.5 0 1 1 0-3 1.5 1.5 0 0 1 0 3zm13 0a1.5 1.5 0 1 1 0-3 1.5 1.5 0 0 1 0 3zm13 0a1.5 1.5 0 1 1 0-3 1.5 1.5 0 0 1 0 3zm13 0a1.5 1.5 0 1 1 0-3 1.5 1.5 0 0 1 0 3zm13 0a1.5 1.5 0 1 1 0-3 1.5 1.5 0 0 1 0 3zm13 0a1.5 1.5 0 1 1 0-3 1.5 1.5 0 0 1 0 3zm13 0a1.5 1.5 0 1 1 0-3 1.5 1.5 0 0 1 0 3zm13 0a1.5 1.5 0 1 1 0-3 1.5 1.5 0 0 1 0 3zm13 0a1.5 1.5 0 1 1 0-3 1.5 1.5 0 0 1 0 3zm13 0a1.5 1.5 0 1 1 0-3 1.5 1.5 0 0 1 0 3zm13 0a1.5 1.5 0 1 1 0-3 1.5 1.5 0 0 1 0 3zm13 0a1.5 1.5 0 1 1 0-3 1.5 1.5 0 0 1 0 3zm13 0a1.5 1.5 0 1 1 0-3 1.5 1.5 0 0 1 0 3zm13 0a1.5 1.5 0 1 1 0-3 1.5 1.5 0 0 1 0 3zm13 0a1.5 1.5 0 1 1 0-3 1.5 1.5 0 0 1 0 3zm13 0a1.5 1.5 0 1 1 0-3 1.5 1.5 0 0 1 0 3zm13 0a1.5 1.5 0 1 1 0-3 1.5 1.5 0 0 1 0 3zm13 0a1.5 1.5 0 1 1 0-3 1.5 1.5 0 0 1 0 3zm13 0a1.5 1.5 0 1 1 0-3 1.5 1.5 0 0 1 0 3zm13 0a1.5 1.5 0 1 1 0-3 1.5 1.5 0 0 1 0 3zm13 0a1.5 1.5 0 1 1 0-3 1.5 1.5 0 0 1 0 3zm13 0a1.5 1.5 0 1 1 0-3 1.5 1.5 0 0 1 0 3zm13 0a1.5 1.5 0 1 1 0-3 1.5 1.5 0 0 1 0 3zm13 0a1.5 1.5 0 1 1 0-3 1.5 1.5 0 0 1 0 3zm13 0a1.5 1.5 0 1 1 0-3 1.5 1.5 0 0 1 0 3zm13 0a1.5 1.5 0 1 1 0-3 1.5 1.5 0 0 1 0 3zm13 0a1.5 1.5 0 1 1 0-3 1.5 1.5 0 0 1 0 3zm13 0a1.5 1.5 0 1 1 0-3 1.5 1.5 0 0 1 0 3zm13 0a1.5 1.5 0 1 1 0-3 1.5 1.5 0 0 1 0 3zm13 0a1.5 1.5 0 1 1 0-3 1.5 1.5 0 0 1 0 3zm13 0a1.5 1.5 0 1 1 0-3 1.5 1.5 0 0 1 0 3zm13 0a1.5 1.5 0 1 1 0-3 1.5 1.5 0 0 1 0 3zm-442 13a1.5 1.5 0 1 1 0-3 1.5 1.5 0 0 1 0 3zm13 0a1.5 1.5 0 1 1 0-3 1.5 1.5 0 0 1 0 3zm13 0a1.5 1.5 0 1 1 0-3 1.5 1.5 0 0 1 0 3zm13 0a1.5 1.5 0 1 1 0-3 1.5 1.5 0 0 1 0 3zm13 0a1.5 1.5 0 1 1 0-3 1.5 1.5 0 0 1 0 3zm13 0a1.5 1.5 0 1 1 0-3 1.5 1.5 0 0 1 0 3zm13 0a1.5 1.5 0 1 1 0-3 1.5 1.5 0 0 1 0 3zm13 0a1.5 1.5 0 1 1 0-3 1.5 1.5 0 0 1 0 3zm13 0a1.5 1.5 0 1 1 0-3 1.5 1.5 0 0 1 0 3zm13 0a1.5 1.5 0 1 1 0-3 1.5 1.5 0 0 1 0 3zm13 0a1.5 1.5 0 1 1 0-3 1.5 1.5 0 0 1 0 3zm13 0a1.5 1.5 0 1 1 0-3 1.5 1.5 0 0 1 0 3zm13 0a1.5 1.5 0 1 1 0-3 1.5 1.5 0 0 1 0 3zm13 0a1.5 1.5 0 1 1 0-3 1.5 1.5 0 0 1 0 3zm13 0a1.5 1.5 0 1 1 0-3 1.5 1.5 0 0 1 0 3zm13 0a1.5 1.5 0 1 1 0-3 1.5 1.5 0 0 1 0 3zm13 0a1.5 1.5 0 1 1 0-3 1.5 1.5 0 0 1 0 3zm13 0a1.5 1.5 0 1 1 0-3 1.5 1.5 0 0 1 0 3zm13 0a1.5 1.5 0 1 1 0-3 1.5 1.5 0 0 1 0 3zm13 0a1.5 1.5 0 1 1 0-3 1.5 1.5 0 0 1 0 3zm13 0a1.5 1.5 0 1 1 0-3 1.5 1.5 0 0 1 0 3zm13 0a1.5 1.5 0 1 1 0-3 1.5 1.5 0 0 1 0 3zm13 0a1.5 1.5 0 1 1 0-3 1.5 1.5 0 0 1 0 3zm13 0a1.5 1.5 0 1 1 0-3 1.5 1.5 0 0 1 0 3zm13 0a1.5 1.5 0 1 1 0-3 1.5 1.5 0 0 1 0 3zm13 0a1.5 1.5 0 1 1 0-3 1.5 1.5 0 0 1 0 3zm13 0a1.5 1.5 0 1 1 0-3 1.5 1.5 0 0 1 0 3zm13 0a1.5 1.5 0 1 1 0-3 1.5 1.5 0 0 1 0 3zm13 0a1.5 1.5 0 1 1 0-3 1.5 1.5 0 0 1 0 3zm13 0a1.5 1.5 0 1 1 0-3 1.5 1.5 0 0 1 0 3zm13 0a1.5 1.5 0 1 1 0-3 1.5 1.5 0 0 1 0 3zm13 0a1.5 1.5 0 1 1 0-3 1.5 1.5 0 0 1 0 3zm13 0a1.5 1.5 0 1 1 0-3 1.5 1.5 0 0 1 0 3zm13 0a1.5 1.5 0 1 1 0-3 1.5 1.5 0 0 1 0 3zm13 0a1.5 1.5 0 1 1 0-3 1.5 1.5 0 0 1 0 3zm-442 13a1.5 1.5 0 1 1 0-3 1.5 1.5 0 0 1 0 3zm13 0a1.5 1.5 0 1 1 0-3 1.5 1.5 0 0 1 0 3zm13 0a1.5 1.5 0 1 1 0-3 1.5 1.5 0 0 1 0 3zm13 0a1.5 1.5 0 1 1 0-3 1.5 1.5 0 0 1 0 3zm13 0a1.5 1.5 0 1 1 0-3 1.5 1.5 0 0 1 0 3zm13 0a1.5 1.5 0 1 1 0-3 1.5 1.5 0 0 1 0 3zm13 0a1.5 1.5 0 1 1 0-3 1.5 1.5 0 0 1 0 3zm13 0a1.5 1.5 0 1 1 0-3 1.5 1.5 0 0 1 0 3zm13 0a1.5 1.5 0 1 1 0-3 1.5 1.5 0 0 1 0 3zm13 0a1.5 1.5 0 1 1 0-3 1.5 1.5 0 0 1 0 3zm13 0a1.5 1.5 0 1 1 0-3 1.5 1.5 0 0 1 0 3zm13 0a1.5 1.5 0 1 1 0-3 1.5 1.5 0 0 1 0 3zm13 0a1.5 1.5 0 1 1 0-3 1.5 1.5 0 0 1 0 3zm13 0a1.5 1.5 0 1 1 0-3 1.5 1.5 0 0 1 0 3zm13 0a1.5 1.5 0 1 1 0-3 1.5 1.5 0 0 1 0 3zm13 0a1.5 1.5 0 1 1 0-3 1.5 1.5 0 0 1 0 3zm13 0a1.5 1.5 0 1 1 0-3 1.5 1.5 0 0 1 0 3zm13 0a1.5 1.5 0 1 1 0-3 1.5 1.5 0 0 1 0 3zm13 0a1.5 1.5 0 1 1 0-3 1.5 1.5 0 0 1 0 3zm13 0a1.5 1.5 0 1 1 0-3 1.5 1.5 0 0 1 0 3zm13 0a1.5 1.5 0 1 1 0-3 1.5 1.5 0 0 1 0 3zm13 0a1.5 1.5 0 1 1 0-3 1.5 1.5 0 0 1 0 3zm13 0a1.5 1.5 0 1 1 0-3 1.5 1.5 0 0 1 0 3zm13 0a1.5 1.5 0 1 1 0-3 1.5 1.5 0 0 1 0 3zm13 0a1.5 1.5 0 1 1 0-3 1.5 1.5 0 0 1 0 3zm13 0a1.5 1.5 0 1 1 0-3 1.5 1.5 0 0 1 0 3zm13 0a1.5 1.5 0 1 1 0-3 1.5 1.5 0 0 1 0 3zm13 0a1.5 1.5 0 1 1 0-3 1.5 1.5 0 0 1 0 3zm13 0a1.5 1.5 0 1 1 0-3 1.5 1.5 0 0 1 0 3zm13 0a1.5 1.5 0 1 1 0-3 1.5 1.5 0 0 1 0 3zm13 0a1.5 1.5 0 1 1 0-3 1.5 1.5 0 0 1 0 3zm13 0a1.5 1.5 0 1 1 0-3 1.5 1.5 0 0 1 0 3zm13 0a1.5 1.5 0 1 1 0-3 1.5 1.5 0 0 1 0 3zm13 0a1.5 1.5 0 1 1 0-3 1.5 1.5 0 0 1 0 3zm13 0a1.5 1.5 0 1 1 0-3 1.5 1.5 0 0 1 0 3zm-442 13a1.5 1.5 0 1 1 0-3 1.5 1.5 0 0 1 0 3zm13 0a1.5 1.5 0 1 1 0-3 1.5 1.5 0 0 1 0 3zm13 0a1.5 1.5 0 1 1 0-3 1.5 1.5 0 0 1 0 3zm13 0a1.5 1.5 0 1 1 0-3 1.5 1.5 0 0 1 0 3zm13 0a1.5 1.5 0 1 1 0-3 1.5 1.5 0 0 1 0 3zm13 0a1.5 1.5 0 1 1 0-3 1.5 1.5 0 0 1 0 3zm13 0a1.5 1.5 0 1 1 0-3 1.5 1.5 0 0 1 0 3zm13 0a1.5 1.5 0 1 1 0-3 1.5 1.5 0 0 1 0 3zm13 0a1.5 1.5 0 1 1 0-3 1.5 1.5 0 0 1 0 3zm13 0a1.5 1.5 0 1 1 0-3 1.5 1.5 0 0 1 0 3zm13 0a1.5 1.5 0 1 1 0-3 1.5 1.5 0 0 1 0 3zm13 0a1.5 1.5 0 1 1 0-3 1.5 1.5 0 0 1 0 3zm13 0a1.5 1.5 0 1 1 0-3 1.5 1.5 0 0 1 0 3zm13 0a1.5 1.5 0 1 1 0-3 1.5 1.5 0 0 1 0 3zm13 0a1.5 1.5 0 1 1 0-3 1.5 1.5 0 0 1 0 3zm13 0a1.5 1.5 0 1 1 0-3 1.5 1.5 0 0 1 0 3zm13 0a1.5 1.5 0 1 1 0-3 1.5 1.5 0 0 1 0 3zm13 0a1.5 1.5 0 1 1 0-3 1.5 1.5 0 0 1 0 3zm13 0a1.5 1.5 0 1 1 0-3 1.5 1.5 0 0 1 0 3zm13 0a1.5 1.5 0 1 1 0-3 1.5 1.5 0 0 1 0 3zm13 0a1.5 1.5 0 1 1 0-3 1.5 1.5 0 0 1 0 3zm13 0a1.5 1.5 0 1 1 0-3 1.5 1.5 0 0 1 0 3zm13 0a1.5 1.5 0 1 1 0-3 1.5 1.5 0 0 1 0 3zm13 0a1.5 1.5 0 1 1 0-3 1.5 1.5 0 0 1 0 3zm13 0a1.5 1.5 0 1 1 0-3 1.5 1.5 0 0 1 0 3zm13 0a1.5 1.5 0 1 1 0-3 1.5 1.5 0 0 1 0 3zm13 0a1.5 1.5 0 1 1 0-3 1.5 1.5 0 0 1 0 3zm13 0a1.5 1.5 0 1 1 0-3 1.5 1.5 0 0 1 0 3zm13 0a1.5 1.5 0 1 1 0-3 1.5 1.5 0 0 1 0 3zm13 0a1.5 1.5 0 1 1 0-3 1.5 1.5 0 0 1 0 3zm13 0a1.5 1.5 0 1 1 0-3 1.5 1.5 0 0 1 0 3zm13 0a1.5 1.5 0 1 1 0-3 1.5 1.5 0 0 1 0 3zm13 0a1.5 1.5 0 1 1 0-3 1.5 1.5 0 0 1 0 3zm13 0a1.5 1.5 0 1 1 0-3 1.5 1.5 0 0 1 0 3zm13 0a1.5 1.5 0 1 1 0-3 1.5 1.5 0 0 1 0 3zm-442 13a1.5 1.5 0 1 1 0-3 1.5 1.5 0 0 1 0 3zm13 0a1.5 1.5 0 1 1 0-3 1.5 1.5 0 0 1 0 3zm13 0a1.5 1.5 0 1 1 0-3 1.5 1.5 0 0 1 0 3zm13 0a1.5 1.5 0 1 1 0-3 1.5 1.5 0 0 1 0 3zm13 0a1.5 1.5 0 1 1 0-3 1.5 1.5 0 0 1 0 3zm13 0a1.5 1.5 0 1 1 0-3 1.5 1.5 0 0 1 0 3zm13 0a1.5 1.5 0 1 1 0-3 1.5 1.5 0 0 1 0 3zm13 0a1.5 1.5 0 1 1 0-3 1.5 1.5 0 0 1 0 3zm13 0a1.5 1.5 0 1 1 0-3 1.5 1.5 0 0 1 0 3zm13 0a1.5 1.5 0 1 1 0-3 1.5 1.5 0 0 1 0 3zm13 0a1.5 1.5 0 1 1 0-3 1.5 1.5 0 0 1 0 3zm13 0a1.5 1.5 0 1 1 0-3 1.5 1.5 0 0 1 0 3zm13 0a1.5 1.5 0 1 1 0-3 1.5 1.5 0 0 1 0 3zm13 0a1.5 1.5 0 1 1 0-3 1.5 1.5 0 0 1 0 3zm13 0a1.5 1.5 0 1 1 0-3 1.5 1.5 0 0 1 0 3zm13 0a1.5 1.5 0 1 1 0-3 1.5 1.5 0 0 1 0 3zm13 0a1.5 1.5 0 1 1 0-3 1.5 1.5 0 0 1 0 3zm13 0a1.5 1.5 0 1 1 0-3 1.5 1.5 0 0 1 0 3zm13 0a1.5 1.5 0 1 1 0-3 1.5 1.5 0 0 1 0 3zm13 0a1.5 1.5 0 1 1 0-3 1.5 1.5 0 0 1 0 3zm13 0a1.5 1.5 0 1 1 0-3 1.5 1.5 0 0 1 0 3zm13 0a1.5 1.5 0 1 1 0-3 1.5 1.5 0 0 1 0 3zm13 0a1.5 1.5 0 1 1 0-3 1.5 1.5 0 0 1 0 3zm13 0a1.5 1.5 0 1 1 0-3 1.5 1.5 0 0 1 0 3zm13 0a1.5 1.5 0 1 1 0-3 1.5 1.5 0 0 1 0 3zm13 0a1.5 1.5 0 1 1 0-3 1.5 1.5 0 0 1 0 3zm13 0a1.5 1.5 0 1 1 0-3 1.5 1.5 0 0 1 0 3zm13 0a1.5 1.5 0 1 1 0-3 1.5 1.5 0 0 1 0 3zm13 0a1.5 1.5 0 1 1 0-3 1.5 1.5 0 0 1 0 3zm13 0a1.5 1.5 0 1 1 0-3 1.5 1.5 0 0 1 0 3zm13 0a1.5 1.5 0 1 1 0-3 1.5 1.5 0 0 1 0 3zm13 0a1.5 1.5 0 1 1 0-3 1.5 1.5 0 0 1 0 3zm13 0a1.5 1.5 0 1 1 0-3 1.5 1.5 0 0 1 0 3zm13 0a1.5 1.5 0 1 1 0-3 1.5 1.5 0 0 1 0 3zm13 0a1.5 1.5 0 1 1 0-3 1.5 1.5 0 0 1 0 3zm-442 13a1.5 1.5 0 1 1 0-3 1.5 1.5 0 0 1 0 3zm13 0a1.5 1.5 0 1 1 0-3 1.5 1.5 0 0 1 0 3zm13 0a1.5 1.5 0 1 1 0-3 1.5 1.5 0 0 1 0 3zm13 0a1.5 1.5 0 1 1 0-3 1.5 1.5 0 0 1 0 3zm13 0a1.5 1.5 0 1 1 0-3 1.5 1.5 0 0 1 0 3zm13 0a1.5 1.5 0 1 1 0-3 1.5 1.5 0 0 1 0 3zm13 0a1.5 1.5 0 1 1 0-3 1.5 1.5 0 0 1 0 3zm13 0a1.5 1.5 0 1 1 0-3 1.5 1.5 0 0 1 0 3zm13 0a1.5 1.5 0 1 1 0-3 1.5 1.5 0 0 1 0 3zm13 0a1.5 1.5 0 1 1 0-3 1.5 1.5 0 0 1 0 3zm13 0a1.5 1.5 0 1 1 0-3 1.5 1.5 0 0 1 0 3zm13 0a1.5 1.5 0 1 1 0-3 1.5 1.5 0 0 1 0 3zm13 0a1.5 1.5 0 1 1 0-3 1.5 1.5 0 0 1 0 3zm13 0a1.5 1.5 0 1 1 0-3 1.5 1.5 0 0 1 0 3zm13 0a1.5 1.5 0 1 1 0-3 1.5 1.5 0 0 1 0 3zm13 0a1.5 1.5 0 1 1 0-3 1.5 1.5 0 0 1 0 3zm13 0a1.5 1.5 0 1 1 0-3 1.5 1.5 0 0 1 0 3zm13 0a1.5 1.5 0 1 1 0-3 1.5 1.5 0 0 1 0 3zm13 0a1.5 1.5 0 1 1 0-3 1.5 1.5 0 0 1 0 3zm13 0a1.5 1.5 0 1 1 0-3 1.5 1.5 0 0 1 0 3zm13 0a1.5 1.5 0 1 1 0-3 1.5 1.5 0 0 1 0 3zm13 0a1.5 1.5 0 1 1 0-3 1.5 1.5 0 0 1 0 3zm13 0a1.5 1.5 0 1 1 0-3 1.5 1.5 0 0 1 0 3zm13 0a1.5 1.5 0 1 1 0-3 1.5 1.5 0 0 1 0 3zm13 0a1.5 1.5 0 1 1 0-3 1.5 1.5 0 0 1 0 3zm13 0a1.5 1.5 0 1 1 0-3 1.5 1.5 0 0 1 0 3zm13 0a1.5 1.5 0 1 1 0-3 1.5 1.5 0 0 1 0 3zm13 0a1.5 1.5 0 1 1 0-3 1.5 1.5 0 0 1 0 3zm13 0a1.5 1.5 0 1 1 0-3 1.5 1.5 0 0 1 0 3zm13 0a1.5 1.5 0 1 1 0-3 1.5 1.5 0 0 1 0 3zm13 0a1.5 1.5 0 1 1 0-3 1.5 1.5 0 0 1 0 3zm13 0a1.5 1.5 0 1 1 0-3 1.5 1.5 0 0 1 0 3zm13 0a1.5 1.5 0 1 1 0-3 1.5 1.5 0 0 1 0 3zm13 0a1.5 1.5 0 1 1 0-3 1.5 1.5 0 0 1 0 3zm13 0a1.5 1.5 0 1 1 0-3 1.5 1.5 0 0 1 0 3zm-442 13a1.5 1.5 0 1 1 0-3 1.5 1.5 0 0 1 0 3zm13 0a1.5 1.5 0 1 1 0-3 1.5 1.5 0 0 1 0 3zm13 0a1.5 1.5 0 1 1 0-3 1.5 1.5 0 0 1 0 3zm13 0a1.5 1.5 0 1 1 0-3 1.5 1.5 0 0 1 0 3zm13 0a1.5 1.5 0 1 1 0-3 1.5 1.5 0 0 1 0 3zm13 0a1.5 1.5 0 1 1 0-3 1.5 1.5 0 0 1 0 3zm13 0a1.5 1.5 0 1 1 0-3 1.5 1.5 0 0 1 0 3zm13 0a1.5 1.5 0 1 1 0-3 1.5 1.5 0 0 1 0 3zm13 0a1.5 1.5 0 1 1 0-3 1.5 1.5 0 0 1 0 3zm13 0a1.5 1.5 0 1 1 0-3 1.5 1.5 0 0 1 0 3zm13 0a1.5 1.5 0 1 1 0-3 1.5 1.5 0 0 1 0 3zm13 0a1.5 1.5 0 1 1 0-3 1.5 1.5 0 0 1 0 3zm13 0a1.5 1.5 0 1 1 0-3 1.5 1.5 0 0 1 0 3zm13 0a1.5 1.5 0 1 1 0-3 1.5 1.5 0 0 1 0 3zm13 0a1.5 1.5 0 1 1 0-3 1.5 1.5 0 0 1 0 3zm13 0a1.5 1.5 0 1 1 0-3 1.5 1.5 0 0 1 0 3zm13 0a1.5 1.5 0 1 1 0-3 1.5 1.5 0 0 1 0 3zm13 0a1.5 1.5 0 1 1 0-3 1.5 1.5 0 0 1 0 3zm13 0a1.5 1.5 0 1 1 0-3 1.5 1.5 0 0 1 0 3zm13 0a1.5 1.5 0 1 1 0-3 1.5 1.5 0 0 1 0 3zm13 0a1.5 1.5 0 1 1 0-3 1.5 1.5 0 0 1 0 3zm13 0a1.5 1.5 0 1 1 0-3 1.5 1.5 0 0 1 0 3zm13 0a1.5 1.5 0 1 1 0-3 1.5 1.5 0 0 1 0 3zm13 0a1.5 1.5 0 1 1 0-3 1.5 1.5 0 0 1 0 3zm13 0a1.5 1.5 0 1 1 0-3 1.5 1.5 0 0 1 0 3zm13 0a1.5 1.5 0 1 1 0-3 1.5 1.5 0 0 1 0 3zm13 0a1.5 1.5 0 1 1 0-3 1.5 1.5 0 0 1 0 3zm13 0a1.5 1.5 0 1 1 0-3 1.5 1.5 0 0 1 0 3zm13 0a1.5 1.5 0 1 1 0-3 1.5 1.5 0 0 1 0 3zm13 0a1.5 1.5 0 1 1 0-3 1.5 1.5 0 0 1 0 3zm13 0a1.5 1.5 0 1 1 0-3 1.5 1.5 0 0 1 0 3zm13 0a1.5 1.5 0 1 1 0-3 1.5 1.5 0 0 1 0 3zm13 0a1.5 1.5 0 1 1 0-3 1.5 1.5 0 0 1 0 3zm13 0a1.5 1.5 0 1 1 0-3 1.5 1.5 0 0 1 0 3zm13 0a1.5 1.5 0 1 1 0-3 1.5 1.5 0 0 1 0 3zm-442 13a1.5 1.5 0 1 1 0-3 1.5 1.5 0 0 1 0 3zm13 0a1.5 1.5 0 1 1 0-3 1.5 1.5 0 0 1 0 3zm13 0a1.5 1.5 0 1 1 0-3 1.5 1.5 0 0 1 0 3zm13 0a1.5 1.5 0 1 1 0-3 1.5 1.5 0 0 1 0 3zm13 0a1.5 1.5 0 1 1 0-3 1.5 1.5 0 0 1 0 3zm13 0a1.5 1.5 0 1 1 0-3 1.5 1.5 0 0 1 0 3zm13 0a1.5 1.5 0 1 1 0-3 1.5 1.5 0 0 1 0 3zm13 0a1.5 1.5 0 1 1 0-3 1.5 1.5 0 0 1 0 3zm13 0a1.5 1.5 0 1 1 0-3 1.5 1.5 0 0 1 0 3zm13 0a1.5 1.5 0 1 1 0-3 1.5 1.5 0 0 1 0 3zm13 0a1.5 1.5 0 1 1 0-3 1.5 1.5 0 0 1 0 3zm13 0a1.5 1.5 0 1 1 0-3 1.5 1.5 0 0 1 0 3zm13 0a1.5 1.5 0 1 1 0-3 1.5 1.5 0 0 1 0 3zm13 0a1.5 1.5 0 1 1 0-3 1.5 1.5 0 0 1 0 3zm13 0a1.5 1.5 0 1 1 0-3 1.5 1.5 0 0 1 0 3zm13 0a1.5 1.5 0 1 1 0-3 1.5 1.5 0 0 1 0 3zm13 0a1.5 1.5 0 1 1 0-3 1.5 1.5 0 0 1 0 3zm13 0a1.5 1.5 0 1 1 0-3 1.5 1.5 0 0 1 0 3zm13 0a1.5 1.5 0 1 1 0-3 1.5 1.5 0 0 1 0 3zm13 0a1.5 1.5 0 1 1 0-3 1.5 1.5 0 0 1 0 3zm13 0a1.5 1.5 0 1 1 0-3 1.5 1.5 0 0 1 0 3zm13 0a1.5 1.5 0 1 1 0-3 1.5 1.5 0 0 1 0 3zm13 0a1.5 1.5 0 1 1 0-3 1.5 1.5 0 0 1 0 3zm13 0a1.5 1.5 0 1 1 0-3 1.5 1.5 0 0 1 0 3zm13 0a1.5 1.5 0 1 1 0-3 1.5 1.5 0 0 1 0 3zm13 0a1.5 1.5 0 1 1 0-3 1.5 1.5 0 0 1 0 3zm13 0a1.5 1.5 0 1 1 0-3 1.5 1.5 0 0 1 0 3zm13 0a1.5 1.5 0 1 1 0-3 1.5 1.5 0 0 1 0 3zm13 0a1.5 1.5 0 1 1 0-3 1.5 1.5 0 0 1 0 3zm13 0a1.5 1.5 0 1 1 0-3 1.5 1.5 0 0 1 0 3zm13 0a1.5 1.5 0 1 1 0-3 1.5 1.5 0 0 1 0 3zm13 0a1.5 1.5 0 1 1 0-3 1.5 1.5 0 0 1 0 3zm13 0a1.5 1.5 0 1 1 0-3 1.5 1.5 0 0 1 0 3zm13 0a1.5 1.5 0 1 1 0-3 1.5 1.5 0 0 1 0 3zm13 0a1.5 1.5 0 1 1 0-3 1.5 1.5 0 0 1 0 3zm-442 13a1.5 1.5 0 1 1 0-3 1.5 1.5 0 0 1 0 3zm13 0a1.5 1.5 0 1 1 0-3 1.5 1.5 0 0 1 0 3zm13 0a1.5 1.5 0 1 1 0-3 1.5 1.5 0 0 1 0 3zm13 0a1.5 1.5 0 1 1 0-3 1.5 1.5 0 0 1 0 3zm13 0a1.5 1.5 0 1 1 0-3 1.5 1.5 0 0 1 0 3zm13 0a1.5 1.5 0 1 1 0-3 1.5 1.5 0 0 1 0 3zm13 0a1.5 1.5 0 1 1 0-3 1.5 1.5 0 0 1 0 3zm13 0a1.5 1.5 0 1 1 0-3 1.5 1.5 0 0 1 0 3zm13 0a1.5 1.5 0 1 1 0-3 1.5 1.5 0 0 1 0 3zm13 0a1.5 1.5 0 1 1 0-3 1.5 1.5 0 0 1 0 3zm13 0a1.5 1.5 0 1 1 0-3 1.5 1.5 0 0 1 0 3zm13 0a1.5 1.5 0 1 1 0-3 1.5 1.5 0 0 1 0 3zm13 0a1.5 1.5 0 1 1 0-3 1.5 1.5 0 0 1 0 3zm13 0a1.5 1.5 0 1 1 0-3 1.5 1.5 0 0 1 0 3zm13 0a1.5 1.5 0 1 1 0-3 1.5 1.5 0 0 1 0 3zm13 0a1.5 1.5 0 1 1 0-3 1.5 1.5 0 0 1 0 3zm13 0a1.5 1.5 0 1 1 0-3 1.5 1.5 0 0 1 0 3zm13 0a1.5 1.5 0 1 1 0-3 1.5 1.5 0 0 1 0 3zm13 0a1.5 1.5 0 1 1 0-3 1.5 1.5 0 0 1 0 3zm13 0a1.5 1.5 0 1 1 0-3 1.5 1.5 0 0 1 0 3zm13 0a1.5 1.5 0 1 1 0-3 1.5 1.5 0 0 1 0 3zm13 0a1.5 1.5 0 1 1 0-3 1.5 1.5 0 0 1 0 3zm13 0a1.5 1.5 0 1 1 0-3 1.5 1.5 0 0 1 0 3zm13 0a1.5 1.5 0 1 1 0-3 1.5 1.5 0 0 1 0 3zm13 0a1.5 1.5 0 1 1 0-3 1.5 1.5 0 0 1 0 3zm13 0a1.5 1.5 0 1 1 0-3 1.5 1.5 0 0 1 0 3zm13 0a1.5 1.5 0 1 1 0-3 1.5 1.5 0 0 1 0 3zm13 0a1.5 1.5 0 1 1 0-3 1.5 1.5 0 0 1 0 3zm13 0a1.5 1.5 0 1 1 0-3 1.5 1.5 0 0 1 0 3zm13 0a1.5 1.5 0 1 1 0-3 1.5 1.5 0 0 1 0 3zm13 0a1.5 1.5 0 1 1 0-3 1.5 1.5 0 0 1 0 3zm13 0a1.5 1.5 0 1 1 0-3 1.5 1.5 0 0 1 0 3zm13 0a1.5 1.5 0 1 1 0-3 1.5 1.5 0 0 1 0 3zm13 0a1.5 1.5 0 1 1 0-3 1.5 1.5 0 0 1 0 3zm13 0a1.5 1.5 0 1 1 0-3 1.5 1.5 0 0 1 0 3zm-442 13a1.5 1.5 0 1 1 0-3 1.5 1.5 0 0 1 0 3zm13 0a1.5 1.5 0 1 1 0-3 1.5 1.5 0 0 1 0 3zm13 0a1.5 1.5 0 1 1 0-3 1.5 1.5 0 0 1 0 3zm13 0a1.5 1.5 0 1 1 0-3 1.5 1.5 0 0 1 0 3zm13 0a1.5 1.5 0 1 1 0-3 1.5 1.5 0 0 1 0 3zm13 0a1.5 1.5 0 1 1 0-3 1.5 1.5 0 0 1 0 3zm13 0a1.5 1.5 0 1 1 0-3 1.5 1.5 0 0 1 0 3zm13 0a1.5 1.5 0 1 1 0-3 1.5 1.5 0 0 1 0 3zm13 0a1.5 1.5 0 1 1 0-3 1.5 1.5 0 0 1 0 3zm13 0a1.5 1.5 0 1 1 0-3 1.5 1.5 0 0 1 0 3zm13 0a1.5 1.5 0 1 1 0-3 1.5 1.5 0 0 1 0 3zm13 0a1.5 1.5 0 1 1 0-3 1.5 1.5 0 0 1 0 3zm13 0a1.5 1.5 0 1 1 0-3 1.5 1.5 0 0 1 0 3zm13 0a1.5 1.5 0 1 1 0-3 1.5 1.5 0 0 1 0 3zm13 0a1.5 1.5 0 1 1 0-3 1.5 1.5 0 0 1 0 3zm13 0a1.5 1.5 0 1 1 0-3 1.5 1.5 0 0 1 0 3zm13 0a1.5 1.5 0 1 1 0-3 1.5 1.5 0 0 1 0 3zm13 0a1.5 1.5 0 1 1 0-3 1.5 1.5 0 0 1 0 3zm13 0a1.5 1.5 0 1 1 0-3 1.5 1.5 0 0 1 0 3zm13 0a1.5 1.5 0 1 1 0-3 1.5 1.5 0 0 1 0 3zm13 0a1.5 1.5 0 1 1 0-3 1.5 1.5 0 0 1 0 3zm13 0a1.5 1.5 0 1 1 0-3 1.5 1.5 0 0 1 0 3zm13 0a1.5 1.5 0 1 1 0-3 1.5 1.5 0 0 1 0 3zm13 0a1.5 1.5 0 1 1 0-3 1.5 1.5 0 0 1 0 3zm13 0a1.5 1.5 0 1 1 0-3 1.5 1.5 0 0 1 0 3zm13 0a1.5 1.5 0 1 1 0-3 1.5 1.5 0 0 1 0 3zm13 0a1.5 1.5 0 1 1 0-3 1.5 1.5 0 0 1 0 3zm13 0a1.5 1.5 0 1 1 0-3 1.5 1.5 0 0 1 0 3zm13 0a1.5 1.5 0 1 1 0-3 1.5 1.5 0 0 1 0 3zm13 0a1.5 1.5 0 1 1 0-3 1.5 1.5 0 0 1 0 3zm13 0a1.5 1.5 0 1 1 0-3 1.5 1.5 0 0 1 0 3zm13 0a1.5 1.5 0 1 1 0-3 1.5 1.5 0 0 1 0 3zm13 0a1.5 1.5 0 1 1 0-3 1.5 1.5 0 0 1 0 3zm13 0a1.5 1.5 0 1 1 0-3 1.5 1.5 0 0 1 0 3zm13 0a1.5 1.5 0 1 1 0-3 1.5 1.5 0 0 1 0 3zm-442 13a1.5 1.5 0 1 1 0-3 1.5 1.5 0 0 1 0 3zm13 0a1.5 1.5 0 1 1 0-3 1.5 1.5 0 0 1 0 3zm13 0a1.5 1.5 0 1 1 0-3 1.5 1.5 0 0 1 0 3zm13 0a1.5 1.5 0 1 1 0-3 1.5 1.5 0 0 1 0 3zm13 0a1.5 1.5 0 1 1 0-3 1.5 1.5 0 0 1 0 3zm13 0a1.5 1.5 0 1 1 0-3 1.5 1.5 0 0 1 0 3zm13 0a1.5 1.5 0 1 1 0-3 1.5 1.5 0 0 1 0 3zm13 0a1.5 1.5 0 1 1 0-3 1.5 1.5 0 0 1 0 3zm13 0a1.5 1.5 0 1 1 0-3 1.5 1.5 0 0 1 0 3zm13 0a1.5 1.5 0 1 1 0-3 1.5 1.5 0 0 1 0 3zm13 0a1.5 1.5 0 1 1 0-3 1.5 1.5 0 0 1 0 3zm13 0a1.5 1.5 0 1 1 0-3 1.5 1.5 0 0 1 0 3zm13 0a1.5 1.5 0 1 1 0-3 1.5 1.5 0 0 1 0 3zm13 0a1.5 1.5 0 1 1 0-3 1.5 1.5 0 0 1 0 3zm13 0a1.5 1.5 0 1 1 0-3 1.5 1.5 0 0 1 0 3zm13 0a1.5 1.5 0 1 1 0-3 1.5 1.5 0 0 1 0 3zm13 0a1.5 1.5 0 1 1 0-3 1.5 1.5 0 0 1 0 3zm13 0a1.5 1.5 0 1 1 0-3 1.5 1.5 0 0 1 0 3zm13 0a1.5 1.5 0 1 1 0-3 1.5 1.5 0 0 1 0 3zm13 0a1.5 1.5 0 1 1 0-3 1.5 1.5 0 0 1 0 3zm13 0a1.5 1.5 0 1 1 0-3 1.5 1.5 0 0 1 0 3zm13 0a1.5 1.5 0 1 1 0-3 1.5 1.5 0 0 1 0 3zm13 0a1.5 1.5 0 1 1 0-3 1.5 1.5 0 0 1 0 3zm13 0a1.5 1.5 0 1 1 0-3 1.5 1.5 0 0 1 0 3zm13 0a1.5 1.5 0 1 1 0-3 1.5 1.5 0 0 1 0 3zm13 0a1.5 1.5 0 1 1 0-3 1.5 1.5 0 0 1 0 3zm13 0a1.5 1.5 0 1 1 0-3 1.5 1.5 0 0 1 0 3zm13 0a1.5 1.5 0 1 1 0-3 1.5 1.5 0 0 1 0 3zm13 0a1.5 1.5 0 1 1 0-3 1.5 1.5 0 0 1 0 3zm13 0a1.5 1.5 0 1 1 0-3 1.5 1.5 0 0 1 0 3zm13 0a1.5 1.5 0 1 1 0-3 1.5 1.5 0 0 1 0 3zm13 0a1.5 1.5 0 1 1 0-3 1.5 1.5 0 0 1 0 3zm13 0a1.5 1.5 0 1 1 0-3 1.5 1.5 0 0 1 0 3zm13 0a1.5 1.5 0 1 1 0-3 1.5 1.5 0 0 1 0 3zm13 0a1.5 1.5 0 1 1 0-3 1.5 1.5 0 0 1 0 3zm-442 13a1.5 1.5 0 1 1 0-3 1.5 1.5 0 0 1 0 3zm13 0a1.5 1.5 0 1 1 0-3 1.5 1.5 0 0 1 0 3zm13 0a1.5 1.5 0 1 1 0-3 1.5 1.5 0 0 1 0 3zm13 0a1.5 1.5 0 1 1 0-3 1.5 1.5 0 0 1 0 3zm13 0a1.5 1.5 0 1 1 0-3 1.5 1.5 0 0 1 0 3zm13 0a1.5 1.5 0 1 1 0-3 1.5 1.5 0 0 1 0 3zm13 0a1.5 1.5 0 1 1 0-3 1.5 1.5 0 0 1 0 3zm13 0a1.5 1.5 0 1 1 0-3 1.5 1.5 0 0 1 0 3zm13 0a1.5 1.5 0 1 1 0-3 1.5 1.5 0 0 1 0 3zm13 0a1.5 1.5 0 1 1 0-3 1.5 1.5 0 0 1 0 3zm13 0a1.5 1.5 0 1 1 0-3 1.5 1.5 0 0 1 0 3zm13 0a1.5 1.5 0 1 1 0-3 1.5 1.5 0 0 1 0 3zm13 0a1.5 1.5 0 1 1 0-3 1.5 1.5 0 0 1 0 3zm13 0a1.5 1.5 0 1 1 0-3 1.5 1.5 0 0 1 0 3zm13 0a1.5 1.5 0 1 1 0-3 1.5 1.5 0 0 1 0 3zm13 0a1.5 1.5 0 1 1 0-3 1.5 1.5 0 0 1 0 3zm13 0a1.5 1.5 0 1 1 0-3 1.5 1.5 0 0 1 0 3zm13 0a1.5 1.5 0 1 1 0-3 1.5 1.5 0 0 1 0 3zm13 0a1.5 1.5 0 1 1 0-3 1.5 1.5 0 0 1 0 3zm13 0a1.5 1.5 0 1 1 0-3 1.5 1.5 0 0 1 0 3zm13 0a1.5 1.5 0 1 1 0-3 1.5 1.5 0 0 1 0 3zm13 0a1.5 1.5 0 1 1 0-3 1.5 1.5 0 0 1 0 3zm13 0a1.5 1.5 0 1 1 0-3 1.5 1.5 0 0 1 0 3zm13 0a1.5 1.5 0 1 1 0-3 1.5 1.5 0 0 1 0 3zm13 0a1.5 1.5 0 1 1 0-3 1.5 1.5 0 0 1 0 3zm13 0a1.5 1.5 0 1 1 0-3 1.5 1.5 0 0 1 0 3zm13 0a1.5 1.5 0 1 1 0-3 1.5 1.5 0 0 1 0 3zm13 0a1.5 1.5 0 1 1 0-3 1.5 1.5 0 0 1 0 3zm13 0a1.5 1.5 0 1 1 0-3 1.5 1.5 0 0 1 0 3zm13 0a1.5 1.5 0 1 1 0-3 1.5 1.5 0 0 1 0 3zm13 0a1.5 1.5 0 1 1 0-3 1.5 1.5 0 0 1 0 3zm13 0a1.5 1.5 0 1 1 0-3 1.5 1.5 0 0 1 0 3zm13 0a1.5 1.5 0 1 1 0-3 1.5 1.5 0 0 1 0 3zm13 0a1.5 1.5 0 1 1 0-3 1.5 1.5 0 0 1 0 3zm13 0a1.5 1.5 0 1 1 0-3 1.5 1.5 0 0 1 0 3zm-442 13a1.5 1.5 0 1 1 0-3 1.5 1.5 0 0 1 0 3zm13 0a1.5 1.5 0 1 1 0-3 1.5 1.5 0 0 1 0 3zm13 0a1.5 1.5 0 1 1 0-3 1.5 1.5 0 0 1 0 3zm13 0a1.5 1.5 0 1 1 0-3 1.5 1.5 0 0 1 0 3zm13 0a1.5 1.5 0 1 1 0-3 1.5 1.5 0 0 1 0 3zm13 0a1.5 1.5 0 1 1 0-3 1.5 1.5 0 0 1 0 3zm13 0a1.5 1.5 0 1 1 0-3 1.5 1.5 0 0 1 0 3zm13 0a1.5 1.5 0 1 1 0-3 1.5 1.5 0 0 1 0 3zm13 0a1.5 1.5 0 1 1 0-3 1.5 1.5 0 0 1 0 3zm13 0a1.5 1.5 0 1 1 0-3 1.5 1.5 0 0 1 0 3zm13 0a1.5 1.5 0 1 1 0-3 1.5 1.5 0 0 1 0 3zm13 0a1.5 1.5 0 1 1 0-3 1.5 1.5 0 0 1 0 3zm13 0a1.5 1.5 0 1 1 0-3 1.5 1.5 0 0 1 0 3zm13 0a1.5 1.5 0 1 1 0-3 1.5 1.5 0 0 1 0 3zm13 0a1.5 1.5 0 1 1 0-3 1.5 1.5 0 0 1 0 3zm13 0a1.5 1.5 0 1 1 0-3 1.5 1.5 0 0 1 0 3zm13 0a1.5 1.5 0 1 1 0-3 1.5 1.5 0 0 1 0 3zm13 0a1.5 1.5 0 1 1 0-3 1.5 1.5 0 0 1 0 3zm13 0a1.5 1.5 0 1 1 0-3 1.5 1.5 0 0 1 0 3zm13 0a1.5 1.5 0 1 1 0-3 1.5 1.5 0 0 1 0 3zm13 0a1.5 1.5 0 1 1 0-3 1.5 1.5 0 0 1 0 3zm13 0a1.5 1.5 0 1 1 0-3 1.5 1.5 0 0 1 0 3zm13 0a1.5 1.5 0 1 1 0-3 1.5 1.5 0 0 1 0 3zm13 0a1.5 1.5 0 1 1 0-3 1.5 1.5 0 0 1 0 3zm13 0a1.5 1.5 0 1 1 0-3 1.5 1.5 0 0 1 0 3zm13 0a1.5 1.5 0 1 1 0-3 1.5 1.5 0 0 1 0 3zm13 0a1.5 1.5 0 1 1 0-3 1.5 1.5 0 0 1 0 3zm13 0a1.5 1.5 0 1 1 0-3 1.5 1.5 0 0 1 0 3zm13 0a1.5 1.5 0 1 1 0-3 1.5 1.5 0 0 1 0 3zm13 0a1.5 1.5 0 1 1 0-3 1.5 1.5 0 0 1 0 3zm13 0a1.5 1.5 0 1 1 0-3 1.5 1.5 0 0 1 0 3zm13 0a1.5 1.5 0 1 1 0-3 1.5 1.5 0 0 1 0 3zm13 0a1.5 1.5 0 1 1 0-3 1.5 1.5 0 0 1 0 3zm13 0a1.5 1.5 0 1 1 0-3 1.5 1.5 0 0 1 0 3zm13 0a1.5 1.5 0 1 1 0-3 1.5 1.5 0 0 1 0 3zm-442 13a1.5 1.5 0 1 1 0-3 1.5 1.5 0 0 1 0 3zm13 0a1.5 1.5 0 1 1 0-3 1.5 1.5 0 0 1 0 3zm13 0a1.5 1.5 0 1 1 0-3 1.5 1.5 0 0 1 0 3zm13 0a1.5 1.5 0 1 1 0-3 1.5 1.5 0 0 1 0 3zm13 0a1.5 1.5 0 1 1 0-3 1.5 1.5 0 0 1 0 3zm13 0a1.5 1.5 0 1 1 0-3 1.5 1.5 0 0 1 0 3zm13 0a1.5 1.5 0 1 1 0-3 1.5 1.5 0 0 1 0 3zm13 0a1.5 1.5 0 1 1 0-3 1.5 1.5 0 0 1 0 3zm13 0a1.5 1.5 0 1 1 0-3 1.5 1.5 0 0 1 0 3zm13 0a1.5 1.5 0 1 1 0-3 1.5 1.5 0 0 1 0 3zm13 0a1.5 1.5 0 1 1 0-3 1.5 1.5 0 0 1 0 3zm13 0a1.5 1.5 0 1 1 0-3 1.5 1.5 0 0 1 0 3zm13 0a1.5 1.5 0 1 1 0-3 1.5 1.5 0 0 1 0 3zm13 0a1.5 1.5 0 1 1 0-3 1.5 1.5 0 0 1 0 3zm13 0a1.5 1.5 0 1 1 0-3 1.5 1.5 0 0 1 0 3zm13 0a1.5 1.5 0 1 1 0-3 1.5 1.5 0 0 1 0 3zm13 0a1.5 1.5 0 1 1 0-3 1.5 1.5 0 0 1 0 3zm13 0a1.5 1.5 0 1 1 0-3 1.5 1.5 0 0 1 0 3zm13 0a1.5 1.5 0 1 1 0-3 1.5 1.5 0 0 1 0 3zm13 0a1.5 1.5 0 1 1 0-3 1.5 1.5 0 0 1 0 3zm13 0a1.5 1.5 0 1 1 0-3 1.5 1.5 0 0 1 0 3zm13 0a1.5 1.5 0 1 1 0-3 1.5 1.5 0 0 1 0 3zm13 0a1.5 1.5 0 1 1 0-3 1.5 1.5 0 0 1 0 3zm13 0a1.5 1.5 0 1 1 0-3 1.5 1.5 0 0 1 0 3zm13 0a1.5 1.5 0 1 1 0-3 1.5 1.5 0 0 1 0 3zm13 0a1.5 1.5 0 1 1 0-3 1.5 1.5 0 0 1 0 3zm13 0a1.5 1.5 0 1 1 0-3 1.5 1.5 0 0 1 0 3zm13 0a1.5 1.5 0 1 1 0-3 1.5 1.5 0 0 1 0 3zm13 0a1.5 1.5 0 1 1 0-3 1.5 1.5 0 0 1 0 3zm13 0a1.5 1.5 0 1 1 0-3 1.5 1.5 0 0 1 0 3zm13 0a1.5 1.5 0 1 1 0-3 1.5 1.5 0 0 1 0 3zm13 0a1.5 1.5 0 1 1 0-3 1.5 1.5 0 0 1 0 3zm13 0a1.5 1.5 0 1 1 0-3 1.5 1.5 0 0 1 0 3zm13 0a1.5 1.5 0 1 1 0-3 1.5 1.5 0 0 1 0 3zm13 0a1.5 1.5 0 1 1 0-3 1.5 1.5 0 0 1 0 3zm-442 13a1.5 1.5 0 1 1 0-3 1.5 1.5 0 0 1 0 3zm13 0a1.5 1.5 0 1 1 0-3 1.5 1.5 0 0 1 0 3zm13 0a1.5 1.5 0 1 1 0-3 1.5 1.5 0 0 1 0 3zm13 0a1.5 1.5 0 1 1 0-3 1.5 1.5 0 0 1 0 3zm13 0a1.5 1.5 0 1 1 0-3 1.5 1.5 0 0 1 0 3zm13 0a1.5 1.5 0 1 1 0-3 1.5 1.5 0 0 1 0 3zm13 0a1.5 1.5 0 1 1 0-3 1.5 1.5 0 0 1 0 3zm13 0a1.5 1.5 0 1 1 0-3 1.5 1.5 0 0 1 0 3zm13 0a1.5 1.5 0 1 1 0-3 1.5 1.5 0 0 1 0 3zm13 0a1.5 1.5 0 1 1 0-3 1.5 1.5 0 0 1 0 3zm13 0a1.5 1.5 0 1 1 0-3 1.5 1.5 0 0 1 0 3zm13 0a1.5 1.5 0 1 1 0-3 1.5 1.5 0 0 1 0 3zm13 0a1.5 1.5 0 1 1 0-3 1.5 1.5 0 0 1 0 3zm13 0a1.5 1.5 0 1 1 0-3 1.5 1.5 0 0 1 0 3zm13 0a1.5 1.5 0 1 1 0-3 1.5 1.5 0 0 1 0 3zm13 0a1.5 1.5 0 1 1 0-3 1.5 1.5 0 0 1 0 3zm13 0a1.5 1.5 0 1 1 0-3 1.5 1.5 0 0 1 0 3zm13 0a1.5 1.5 0 1 1 0-3 1.5 1.5 0 0 1 0 3zm13 0a1.5 1.5 0 1 1 0-3 1.5 1.5 0 0 1 0 3zm13 0a1.5 1.5 0 1 1 0-3 1.5 1.5 0 0 1 0 3zm13 0a1.5 1.5 0 1 1 0-3 1.5 1.5 0 0 1 0 3zm13 0a1.5 1.5 0 1 1 0-3 1.5 1.5 0 0 1 0 3zm13 0a1.5 1.5 0 1 1 0-3 1.5 1.5 0 0 1 0 3zm13 0a1.5 1.5 0 1 1 0-3 1.5 1.5 0 0 1 0 3zm13 0a1.5 1.5 0 1 1 0-3 1.5 1.5 0 0 1 0 3zm13 0a1.5 1.5 0 1 1 0-3 1.5 1.5 0 0 1 0 3zm13 0a1.5 1.5 0 1 1 0-3 1.5 1.5 0 0 1 0 3zm13 0a1.5 1.5 0 1 1 0-3 1.5 1.5 0 0 1 0 3zm13 0a1.5 1.5 0 1 1 0-3 1.5 1.5 0 0 1 0 3zm13 0a1.5 1.5 0 1 1 0-3 1.5 1.5 0 0 1 0 3zm13 0a1.5 1.5 0 1 1 0-3 1.5 1.5 0 0 1 0 3zm13 0a1.5 1.5 0 1 1 0-3 1.5 1.5 0 0 1 0 3zm13 0a1.5 1.5 0 1 1 0-3 1.5 1.5 0 0 1 0 3zm13 0a1.5 1.5 0 1 1 0-3 1.5 1.5 0 0 1 0 3zm13 0a1.5 1.5 0 1 1 0-3 1.5 1.5 0 0 1 0 3zm-442 13a1.5 1.5 0 1 1 0-3 1.5 1.5 0 0 1 0 3zm13 0a1.5 1.5 0 1 1 0-3 1.5 1.5 0 0 1 0 3zm13 0a1.5 1.5 0 1 1 0-3 1.5 1.5 0 0 1 0 3zm13 0a1.5 1.5 0 1 1 0-3 1.5 1.5 0 0 1 0 3zm13 0a1.5 1.5 0 1 1 0-3 1.5 1.5 0 0 1 0 3zm13 0a1.5 1.5 0 1 1 0-3 1.5 1.5 0 0 1 0 3zm13 0a1.5 1.5 0 1 1 0-3 1.5 1.5 0 0 1 0 3zm13 0a1.5 1.5 0 1 1 0-3 1.5 1.5 0 0 1 0 3zm13 0a1.5 1.5 0 1 1 0-3 1.5 1.5 0 0 1 0 3zm13 0a1.5 1.5 0 1 1 0-3 1.5 1.5 0 0 1 0 3zm13 0a1.5 1.5 0 1 1 0-3 1.5 1.5 0 0 1 0 3zm13 0a1.5 1.5 0 1 1 0-3 1.5 1.5 0 0 1 0 3zm13 0a1.5 1.5 0 1 1 0-3 1.5 1.5 0 0 1 0 3zm13 0a1.5 1.5 0 1 1 0-3 1.5 1.5 0 0 1 0 3zm13 0a1.5 1.5 0 1 1 0-3 1.5 1.5 0 0 1 0 3zm13 0a1.5 1.5 0 1 1 0-3 1.5 1.5 0 0 1 0 3zm13 0a1.5 1.5 0 1 1 0-3 1.5 1.5 0 0 1 0 3zm13 0a1.5 1.5 0 1 1 0-3 1.5 1.5 0 0 1 0 3zm13 0a1.5 1.5 0 1 1 0-3 1.5 1.5 0 0 1 0 3zm13 0a1.5 1.5 0 1 1 0-3 1.5 1.5 0 0 1 0 3zm13 0a1.5 1.5 0 1 1 0-3 1.5 1.5 0 0 1 0 3zm13 0a1.5 1.5 0 1 1 0-3 1.5 1.5 0 0 1 0 3zm13 0a1.5 1.5 0 1 1 0-3 1.5 1.5 0 0 1 0 3zm13 0a1.5 1.5 0 1 1 0-3 1.5 1.5 0 0 1 0 3zm13 0a1.5 1.5 0 1 1 0-3 1.5 1.5 0 0 1 0 3zm13 0a1.5 1.5 0 1 1 0-3 1.5 1.5 0 0 1 0 3zm13 0a1.5 1.5 0 1 1 0-3 1.5 1.5 0 0 1 0 3zm13 0a1.5 1.5 0 1 1 0-3 1.5 1.5 0 0 1 0 3zm13 0a1.5 1.5 0 1 1 0-3 1.5 1.5 0 0 1 0 3zm13 0a1.5 1.5 0 1 1 0-3 1.5 1.5 0 0 1 0 3zm13 0a1.5 1.5 0 1 1 0-3 1.5 1.5 0 0 1 0 3zm13 0a1.5 1.5 0 1 1 0-3 1.5 1.5 0 0 1 0 3zm13 0a1.5 1.5 0 1 1 0-3 1.5 1.5 0 0 1 0 3zm13 0a1.5 1.5 0 1 1 0-3 1.5 1.5 0 0 1 0 3zm13 0a1.5 1.5 0 1 1 0-3 1.5 1.5 0 0 1 0 3zm-442 13a1.5 1.5 0 1 1 0-3 1.5 1.5 0 0 1 0 3zm13 0a1.5 1.5 0 1 1 0-3 1.5 1.5 0 0 1 0 3zm13 0a1.5 1.5 0 1 1 0-3 1.5 1.5 0 0 1 0 3zm13 0a1.5 1.5 0 1 1 0-3 1.5 1.5 0 0 1 0 3zm13 0a1.5 1.5 0 1 1 0-3 1.5 1.5 0 0 1 0 3zm13 0a1.5 1.5 0 1 1 0-3 1.5 1.5 0 0 1 0 3zm13 0a1.5 1.5 0 1 1 0-3 1.5 1.5 0 0 1 0 3zm13 0a1.5 1.5 0 1 1 0-3 1.5 1.5 0 0 1 0 3zm13 0a1.5 1.5 0 1 1 0-3 1.5 1.5 0 0 1 0 3zm13 0a1.5 1.5 0 1 1 0-3 1.5 1.5 0 0 1 0 3zm13 0a1.5 1.5 0 1 1 0-3 1.5 1.5 0 0 1 0 3zm13 0a1.5 1.5 0 1 1 0-3 1.5 1.5 0 0 1 0 3zm13 0a1.5 1.5 0 1 1 0-3 1.5 1.5 0 0 1 0 3zm13 0a1.5 1.5 0 1 1 0-3 1.5 1.5 0 0 1 0 3zm13 0a1.5 1.5 0 1 1 0-3 1.5 1.5 0 0 1 0 3zm13 0a1.5 1.5 0 1 1 0-3 1.5 1.5 0 0 1 0 3zm13 0a1.5 1.5 0 1 1 0-3 1.5 1.5 0 0 1 0 3zm13 0a1.5 1.5 0 1 1 0-3 1.5 1.5 0 0 1 0 3zm13 0a1.5 1.5 0 1 1 0-3 1.5 1.5 0 0 1 0 3zm13 0a1.5 1.5 0 1 1 0-3 1.5 1.5 0 0 1 0 3zm13 0a1.5 1.5 0 1 1 0-3 1.5 1.5 0 0 1 0 3zm13 0a1.5 1.5 0 1 1 0-3 1.5 1.5 0 0 1 0 3zm13 0a1.5 1.5 0 1 1 0-3 1.5 1.5 0 0 1 0 3zm13 0a1.5 1.5 0 1 1 0-3 1.5 1.5 0 0 1 0 3zm13 0a1.5 1.5 0 1 1 0-3 1.5 1.5 0 0 1 0 3zm13 0a1.5 1.5 0 1 1 0-3 1.5 1.5 0 0 1 0 3zm13 0a1.5 1.5 0 1 1 0-3 1.5 1.5 0 0 1 0 3zm13 0a1.5 1.5 0 1 1 0-3 1.5 1.5 0 0 1 0 3zm13 0a1.5 1.5 0 1 1 0-3 1.5 1.5 0 0 1 0 3zm13 0a1.5 1.5 0 1 1 0-3 1.5 1.5 0 0 1 0 3zm13 0a1.5 1.5 0 1 1 0-3 1.5 1.5 0 0 1 0 3zm13 0a1.5 1.5 0 1 1 0-3 1.5 1.5 0 0 1 0 3zm13 0a1.5 1.5 0 1 1 0-3 1.5 1.5 0 0 1 0 3zm13 0a1.5 1.5 0 1 1 0-3 1.5 1.5 0 0 1 0 3zm13 0a1.5 1.5 0 1 1 0-3 1.5 1.5 0 0 1 0 3zm-442 13a1.5 1.5 0 1 1 0-3 1.5 1.5 0 0 1 0 3zm13 0a1.5 1.5 0 1 1 0-3 1.5 1.5 0 0 1 0 3zm13 0a1.5 1.5 0 1 1 0-3 1.5 1.5 0 0 1 0 3zm13 0a1.5 1.5 0 1 1 0-3 1.5 1.5 0 0 1 0 3zm13 0a1.5 1.5 0 1 1 0-3 1.5 1.5 0 0 1 0 3zm13 0a1.5 1.5 0 1 1 0-3 1.5 1.5 0 0 1 0 3zm13 0a1.5 1.5 0 1 1 0-3 1.5 1.5 0 0 1 0 3zm13 0a1.5 1.5 0 1 1 0-3 1.5 1.5 0 0 1 0 3zm13 0a1.5 1.5 0 1 1 0-3 1.5 1.5 0 0 1 0 3zm13 0a1.5 1.5 0 1 1 0-3 1.5 1.5 0 0 1 0 3zm13 0a1.5 1.5 0 1 1 0-3 1.5 1.5 0 0 1 0 3zm13 0a1.5 1.5 0 1 1 0-3 1.5 1.5 0 0 1 0 3zm13 0a1.5 1.5 0 1 1 0-3 1.5 1.5 0 0 1 0 3zm13 0a1.5 1.5 0 1 1 0-3 1.5 1.5 0 0 1 0 3zm13 0a1.5 1.5 0 1 1 0-3 1.5 1.5 0 0 1 0 3zm13 0a1.5 1.5 0 1 1 0-3 1.5 1.5 0 0 1 0 3zm13 0a1.5 1.5 0 1 1 0-3 1.5 1.5 0 0 1 0 3zm13 0a1.5 1.5 0 1 1 0-3 1.5 1.5 0 0 1 0 3zm13 0a1.5 1.5 0 1 1 0-3 1.5 1.5 0 0 1 0 3zm13 0a1.5 1.5 0 1 1 0-3 1.5 1.5 0 0 1 0 3zm13 0a1.5 1.5 0 1 1 0-3 1.5 1.5 0 0 1 0 3zm13 0a1.5 1.5 0 1 1 0-3 1.5 1.5 0 0 1 0 3zm13 0a1.5 1.5 0 1 1 0-3 1.5 1.5 0 0 1 0 3zm13 0a1.5 1.5 0 1 1 0-3 1.5 1.5 0 0 1 0 3zm13 0a1.5 1.5 0 1 1 0-3 1.5 1.5 0 0 1 0 3zm13 0a1.5 1.5 0 1 1 0-3 1.5 1.5 0 0 1 0 3zm13 0a1.5 1.5 0 1 1 0-3 1.5 1.5 0 0 1 0 3zm13 0a1.5 1.5 0 1 1 0-3 1.5 1.5 0 0 1 0 3zm13 0a1.5 1.5 0 1 1 0-3 1.5 1.5 0 0 1 0 3zm13 0a1.5 1.5 0 1 1 0-3 1.5 1.5 0 0 1 0 3zm13 0a1.5 1.5 0 1 1 0-3 1.5 1.5 0 0 1 0 3zm13 0a1.5 1.5 0 1 1 0-3 1.5 1.5 0 0 1 0 3zm13 0a1.5 1.5 0 1 1 0-3 1.5 1.5 0 0 1 0 3zm13 0a1.5 1.5 0 1 1 0-3 1.5 1.5 0 0 1 0 3zm13 0a1.5 1.5 0 1 1 0-3 1.5 1.5 0 0 1 0 3zm-442 13a1.5 1.5 0 1 1 0-3 1.5 1.5 0 0 1 0 3zm13 0a1.5 1.5 0 1 1 0-3 1.5 1.5 0 0 1 0 3zm13 0a1.5 1.5 0 1 1 0-3 1.5 1.5 0 0 1 0 3zm13 0a1.5 1.5 0 1 1 0-3 1.5 1.5 0 0 1 0 3zm13 0a1.5 1.5 0 1 1 0-3 1.5 1.5 0 0 1 0 3zm13 0a1.5 1.5 0 1 1 0-3 1.5 1.5 0 0 1 0 3zm13 0a1.5 1.5 0 1 1 0-3 1.5 1.5 0 0 1 0 3zm13 0a1.5 1.5 0 1 1 0-3 1.5 1.5 0 0 1 0 3zm13 0a1.5 1.5 0 1 1 0-3 1.5 1.5 0 0 1 0 3zm13 0a1.5 1.5 0 1 1 0-3 1.5 1.5 0 0 1 0 3zm13 0a1.5 1.5 0 1 1 0-3 1.5 1.5 0 0 1 0 3zm13 0a1.5 1.5 0 1 1 0-3 1.5 1.5 0 0 1 0 3zm13 0a1.5 1.5 0 1 1 0-3 1.5 1.5 0 0 1 0 3zm13 0a1.5 1.5 0 1 1 0-3 1.5 1.5 0 0 1 0 3zm13 0a1.5 1.5 0 1 1 0-3 1.5 1.5 0 0 1 0 3zm13 0a1.5 1.5 0 1 1 0-3 1.5 1.5 0 0 1 0 3zm13 0a1.5 1.5 0 1 1 0-3 1.5 1.5 0 0 1 0 3zm13 0a1.5 1.5 0 1 1 0-3 1.5 1.5 0 0 1 0 3zm13 0a1.5 1.5 0 1 1 0-3 1.5 1.5 0 0 1 0 3zm13 0a1.5 1.5 0 1 1 0-3 1.5 1.5 0 0 1 0 3zm13 0a1.5 1.5 0 1 1 0-3 1.5 1.5 0 0 1 0 3zm13 0a1.5 1.5 0 1 1 0-3 1.5 1.5 0 0 1 0 3zm13 0a1.5 1.5 0 1 1 0-3 1.5 1.5 0 0 1 0 3zm13 0a1.5 1.5 0 1 1 0-3 1.5 1.5 0 0 1 0 3zm13 0a1.5 1.5 0 1 1 0-3 1.5 1.5 0 0 1 0 3zm13 0a1.5 1.5 0 1 1 0-3 1.5 1.5 0 0 1 0 3zm13 0a1.5 1.5 0 1 1 0-3 1.5 1.5 0 0 1 0 3zm13 0a1.5 1.5 0 1 1 0-3 1.5 1.5 0 0 1 0 3zm13 0a1.5 1.5 0 1 1 0-3 1.5 1.5 0 0 1 0 3zm13 0a1.5 1.5 0 1 1 0-3 1.5 1.5 0 0 1 0 3zm13 0a1.5 1.5 0 1 1 0-3 1.5 1.5 0 0 1 0 3zm13 0a1.5 1.5 0 1 1 0-3 1.5 1.5 0 0 1 0 3zm13 0a1.5 1.5 0 1 1 0-3 1.5 1.5 0 0 1 0 3zm13 0a1.5 1.5 0 1 1 0-3 1.5 1.5 0 0 1 0 3zm13 0a1.5 1.5 0 1 1 0-3 1.5 1.5 0 0 1 0 3zm-442 13a1.5 1.5 0 1 1 0-3 1.5 1.5 0 0 1 0 3zm13 0a1.5 1.5 0 1 1 0-3 1.5 1.5 0 0 1 0 3zm13 0a1.5 1.5 0 1 1 0-3 1.5 1.5 0 0 1 0 3zm13 0a1.5 1.5 0 1 1 0-3 1.5 1.5 0 0 1 0 3zm13 0a1.5 1.5 0 1 1 0-3 1.5 1.5 0 0 1 0 3zm13 0a1.5 1.5 0 1 1 0-3 1.5 1.5 0 0 1 0 3zm13 0a1.5 1.5 0 1 1 0-3 1.5 1.5 0 0 1 0 3zm13 0a1.5 1.5 0 1 1 0-3 1.5 1.5 0 0 1 0 3zm13 0a1.5 1.5 0 1 1 0-3 1.5 1.5 0 0 1 0 3zm13 0a1.5 1.5 0 1 1 0-3 1.5 1.5 0 0 1 0 3zm13 0a1.5 1.5 0 1 1 0-3 1.5 1.5 0 0 1 0 3zm13 0a1.5 1.5 0 1 1 0-3 1.5 1.5 0 0 1 0 3zm13 0a1.5 1.5 0 1 1 0-3 1.5 1.5 0 0 1 0 3zm13 0a1.5 1.5 0 1 1 0-3 1.5 1.5 0 0 1 0 3zm13 0a1.5 1.5 0 1 1 0-3 1.5 1.5 0 0 1 0 3zm13 0a1.5 1.5 0 1 1 0-3 1.5 1.5 0 0 1 0 3zm13 0a1.5 1.5 0 1 1 0-3 1.5 1.5 0 0 1 0 3zm13 0a1.5 1.5 0 1 1 0-3 1.5 1.5 0 0 1 0 3zm13 0a1.5 1.5 0 1 1 0-3 1.5 1.5 0 0 1 0 3zm13 0a1.5 1.5 0 1 1 0-3 1.5 1.5 0 0 1 0 3zm13 0a1.5 1.5 0 1 1 0-3 1.5 1.5 0 0 1 0 3zm13 0a1.5 1.5 0 1 1 0-3 1.5 1.5 0 0 1 0 3zm13 0a1.5 1.5 0 1 1 0-3 1.5 1.5 0 0 1 0 3zm13 0a1.5 1.5 0 1 1 0-3 1.5 1.5 0 0 1 0 3zm13 0a1.5 1.5 0 1 1 0-3 1.5 1.5 0 0 1 0 3zm13 0a1.5 1.5 0 1 1 0-3 1.5 1.5 0 0 1 0 3zm13 0a1.5 1.5 0 1 1 0-3 1.5 1.5 0 0 1 0 3zm13 0a1.5 1.5 0 1 1 0-3 1.5 1.5 0 0 1 0 3zm13 0a1.5 1.5 0 1 1 0-3 1.5 1.5 0 0 1 0 3zm13 0a1.5 1.5 0 1 1 0-3 1.5 1.5 0 0 1 0 3zm13 0a1.5 1.5 0 1 1 0-3 1.5 1.5 0 0 1 0 3zm13 0a1.5 1.5 0 1 1 0-3 1.5 1.5 0 0 1 0 3zm13 0a1.5 1.5 0 1 1 0-3 1.5 1.5 0 0 1 0 3zm13 0a1.5 1.5 0 1 1 0-3 1.5 1.5 0 0 1 0 3zm13 0a1.5 1.5 0 1 1 0-3 1.5 1.5 0 0 1 0 3z" fill="#8BC640" mask="url(#g)"/>
            </g>
        </g>
        <g mask="url(#e)">
            <g transform="matrix(0 -1 -1 0 676 430)">
                <mask id="i" fill="#fff">
                    <use xlink:href="#h"/>
                </mask>
                <path d="M-136.5-17a1.5 1.5 0 1 1 0-3 1.5 1.5 0 0 1 0 3zm13 0a1.5 1.5 0 1 1 0-3 1.5 1.5 0 0 1 0 3zm13 0a1.5 1.5 0 1 1 0-3 1.5 1.5 0 0 1 0 3zm13 0a1.5 1.5 0 1 1 0-3 1.5 1.5 0 0 1 0 3zm13 0a1.5 1.5 0 1 1 0-3 1.5 1.5 0 0 1 0 3zm13 0a1.5 1.5 0 1 1 0-3 1.5 1.5 0 0 1 0 3zm13 0a1.5 1.5 0 1 1 0-3 1.5 1.5 0 0 1 0 3zm13 0a1.5 1.5 0 1 1 0-3 1.5 1.5 0 0 1 0 3zm13 0a1.5 1.5 0 1 1 0-3 1.5 1.5 0 0 1 0 3zm13 0a1.5 1.5 0 1 1 0-3 1.5 1.5 0 0 1 0 3zm13 0a1.5 1.5 0 1 1 0-3 1.5 1.5 0 0 1 0 3zm13 0a1.5 1.5 0 1 1 0-3 1.5 1.5 0 0 1 0 3zm13 0a1.5 1.5 0 1 1 0-3 1.5 1.5 0 0 1 0 3zm13 0a1.5 1.5 0 1 1 0-3 1.5 1.5 0 0 1 0 3zm13 0a1.5 1.5 0 1 1 0-3 1.5 1.5 0 0 1 0 3zm13 0a1.5 1.5 0 1 1 0-3 1.5 1.5 0 0 1 0 3zm13 0a1.5 1.5 0 1 1 0-3 1.5 1.5 0 0 1 0 3zm13 0a1.5 1.5 0 1 1 0-3 1.5 1.5 0 0 1 0 3zm13 0a1.5 1.5 0 1 1 0-3 1.5 1.5 0 0 1 0 3zm13 0a1.5 1.5 0 1 1 0-3 1.5 1.5 0 0 1 0 3zm13 0a1.5 1.5 0 1 1 0-3 1.5 1.5 0 0 1 0 3zm13 0a1.5 1.5 0 1 1 0-3 1.5 1.5 0 0 1 0 3zm13 0a1.5 1.5 0 1 1 0-3 1.5 1.5 0 0 1 0 3zm13 0a1.5 1.5 0 1 1 0-3 1.5 1.5 0 0 1 0 3zm13 0a1.5 1.5 0 1 1 0-3 1.5 1.5 0 0 1 0 3zm13 0a1.5 1.5 0 1 1 0-3 1.5 1.5 0 0 1 0 3zm13 0a1.5 1.5 0 1 1 0-3 1.5 1.5 0 0 1 0 3zm13 0a1.5 1.5 0 1 1 0-3 1.5 1.5 0 0 1 0 3zm13 0a1.5 1.5 0 1 1 0-3 1.5 1.5 0 0 1 0 3zm13 0a1.5 1.5 0 1 1 0-3 1.5 1.5 0 0 1 0 3zm13 0a1.5 1.5 0 1 1 0-3 1.5 1.5 0 0 1 0 3zm13 0a1.5 1.5 0 1 1 0-3 1.5 1.5 0 0 1 0 3zm13 0a1.5 1.5 0 1 1 0-3 1.5 1.5 0 0 1 0 3zm13 0a1.5 1.5 0 1 1 0-3 1.5 1.5 0 0 1 0 3zm13 0a1.5 1.5 0 1 1 0-3 1.5 1.5 0 0 1 0 3zm-442 13a1.5 1.5 0 1 1 0-3 1.5 1.5 0 0 1 0 3zm13 0a1.5 1.5 0 1 1 0-3 1.5 1.5 0 0 1 0 3zm13 0a1.5 1.5 0 1 1 0-3 1.5 1.5 0 0 1 0 3zm13 0a1.5 1.5 0 1 1 0-3 1.5 1.5 0 0 1 0 3zm13 0a1.5 1.5 0 1 1 0-3 1.5 1.5 0 0 1 0 3zm13 0a1.5 1.5 0 1 1 0-3 1.5 1.5 0 0 1 0 3zm13 0a1.5 1.5 0 1 1 0-3 1.5 1.5 0 0 1 0 3zm13 0a1.5 1.5 0 1 1 0-3 1.5 1.5 0 0 1 0 3zm13 0a1.5 1.5 0 1 1 0-3 1.5 1.5 0 0 1 0 3zm13 0a1.5 1.5 0 1 1 0-3 1.5 1.5 0 0 1 0 3zm13 0a1.5 1.5 0 1 1 0-3 1.5 1.5 0 0 1 0 3zm13 0a1.5 1.5 0 1 1 0-3 1.5 1.5 0 0 1 0 3zm13 0a1.5 1.5 0 1 1 0-3 1.5 1.5 0 0 1 0 3zm13 0a1.5 1.5 0 1 1 0-3 1.5 1.5 0 0 1 0 3zm13 0a1.5 1.5 0 1 1 0-3 1.5 1.5 0 0 1 0 3zm13 0a1.5 1.5 0 1 1 0-3 1.5 1.5 0 0 1 0 3zm13 0a1.5 1.5 0 1 1 0-3 1.5 1.5 0 0 1 0 3zm13 0a1.5 1.5 0 1 1 0-3 1.5 1.5 0 0 1 0 3zm13 0a1.5 1.5 0 1 1 0-3 1.5 1.5 0 0 1 0 3zm13 0a1.5 1.5 0 1 1 0-3 1.5 1.5 0 0 1 0 3zm13 0a1.5 1.5 0 1 1 0-3 1.5 1.5 0 0 1 0 3zm13 0a1.5 1.5 0 1 1 0-3 1.5 1.5 0 0 1 0 3zm13 0a1.5 1.5 0 1 1 0-3 1.5 1.5 0 0 1 0 3zm13 0a1.5 1.5 0 1 1 0-3 1.5 1.5 0 0 1 0 3zm13 0a1.5 1.5 0 1 1 0-3 1.5 1.5 0 0 1 0 3zm13 0a1.5 1.5 0 1 1 0-3 1.5 1.5 0 0 1 0 3zm13 0a1.5 1.5 0 1 1 0-3 1.5 1.5 0 0 1 0 3zm13 0a1.5 1.5 0 1 1 0-3 1.5 1.5 0 0 1 0 3zm13 0a1.5 1.5 0 1 1 0-3 1.5 1.5 0 0 1 0 3zm13 0a1.5 1.5 0 1 1 0-3 1.5 1.5 0 0 1 0 3zm13 0a1.5 1.5 0 1 1 0-3 1.5 1.5 0 0 1 0 3zm13 0a1.5 1.5 0 1 1 0-3 1.5 1.5 0 0 1 0 3zm13 0a1.5 1.5 0 1 1 0-3 1.5 1.5 0 0 1 0 3zm13 0a1.5 1.5 0 1 1 0-3 1.5 1.5 0 0 1 0 3zm13 0a1.5 1.5 0 1 1 0-3 1.5 1.5 0 0 1 0 3zm-442 13a1.5 1.5 0 1 1 0-3 1.5 1.5 0 0 1 0 3zm13 0a1.5 1.5 0 1 1 0-3 1.5 1.5 0 0 1 0 3zm13 0a1.5 1.5 0 1 1 0-3 1.5 1.5 0 0 1 0 3zm13 0a1.5 1.5 0 1 1 0-3 1.5 1.5 0 0 1 0 3zm13 0a1.5 1.5 0 1 1 0-3 1.5 1.5 0 0 1 0 3zm13 0a1.5 1.5 0 1 1 0-3 1.5 1.5 0 0 1 0 3zm13 0a1.5 1.5 0 1 1 0-3 1.5 1.5 0 0 1 0 3zm13 0a1.5 1.5 0 1 1 0-3 1.5 1.5 0 0 1 0 3zm13 0a1.5 1.5 0 1 1 0-3 1.5 1.5 0 0 1 0 3zm13 0a1.5 1.5 0 1 1 0-3 1.5 1.5 0 0 1 0 3zm13 0a1.5 1.5 0 1 1 0-3 1.5 1.5 0 0 1 0 3zm13 0a1.5 1.5 0 1 1 0-3 1.5 1.5 0 0 1 0 3zm13 0a1.5 1.5 0 1 1 0-3 1.5 1.5 0 0 1 0 3zm13 0a1.5 1.5 0 1 1 0-3 1.5 1.5 0 0 1 0 3zm13 0a1.5 1.5 0 1 1 0-3 1.5 1.5 0 0 1 0 3zm13 0a1.5 1.5 0 1 1 0-3 1.5 1.5 0 0 1 0 3zm13 0a1.5 1.5 0 1 1 0-3 1.5 1.5 0 0 1 0 3zm13 0a1.5 1.5 0 1 1 0-3 1.5 1.5 0 0 1 0 3zm13 0a1.5 1.5 0 1 1 0-3 1.5 1.5 0 0 1 0 3zm13 0a1.5 1.5 0 1 1 0-3 1.5 1.5 0 0 1 0 3zm13 0a1.5 1.5 0 1 1 0-3 1.5 1.5 0 0 1 0 3zm13 0a1.5 1.5 0 1 1 0-3 1.5 1.5 0 0 1 0 3zm13 0a1.5 1.5 0 1 1 0-3 1.5 1.5 0 0 1 0 3zm13 0a1.5 1.5 0 1 1 0-3 1.5 1.5 0 0 1 0 3zm13 0a1.5 1.5 0 1 1 0-3 1.5 1.5 0 0 1 0 3zm13 0a1.5 1.5 0 1 1 0-3 1.5 1.5 0 0 1 0 3zm13 0a1.5 1.5 0 1 1 0-3 1.5 1.5 0 0 1 0 3zm13 0a1.5 1.5 0 1 1 0-3 1.5 1.5 0 0 1 0 3zm13 0a1.5 1.5 0 1 1 0-3 1.5 1.5 0 0 1 0 3zm13 0a1.5 1.5 0 1 1 0-3 1.5 1.5 0 0 1 0 3zm13 0a1.5 1.5 0 1 1 0-3 1.5 1.5 0 0 1 0 3zm13 0a1.5 1.5 0 1 1 0-3 1.5 1.5 0 0 1 0 3zm13 0a1.5 1.5 0 1 1 0-3 1.5 1.5 0 0 1 0 3zm13 0a1.5 1.5 0 1 1 0-3 1.5 1.5 0 0 1 0 3zm13 0a1.5 1.5 0 1 1 0-3 1.5 1.5 0 0 1 0 3zm-442 13a1.5 1.5 0 1 1 0-3 1.5 1.5 0 0 1 0 3zm13 0a1.5 1.5 0 1 1 0-3 1.5 1.5 0 0 1 0 3zm13 0a1.5 1.5 0 1 1 0-3 1.5 1.5 0 0 1 0 3zm13 0a1.5 1.5 0 1 1 0-3 1.5 1.5 0 0 1 0 3zm13 0a1.5 1.5 0 1 1 0-3 1.5 1.5 0 0 1 0 3zm13 0a1.5 1.5 0 1 1 0-3 1.5 1.5 0 0 1 0 3zm13 0a1.5 1.5 0 1 1 0-3 1.5 1.5 0 0 1 0 3zm13 0a1.5 1.5 0 1 1 0-3 1.5 1.5 0 0 1 0 3zm13 0a1.5 1.5 0 1 1 0-3 1.5 1.5 0 0 1 0 3zm13 0a1.5 1.5 0 1 1 0-3 1.5 1.5 0 0 1 0 3zm13 0a1.5 1.5 0 1 1 0-3 1.5 1.5 0 0 1 0 3zm13 0a1.5 1.5 0 1 1 0-3 1.5 1.5 0 0 1 0 3zm13 0a1.5 1.5 0 1 1 0-3 1.5 1.5 0 0 1 0 3zm13 0a1.5 1.5 0 1 1 0-3 1.5 1.5 0 0 1 0 3zm13 0a1.5 1.5 0 1 1 0-3 1.5 1.5 0 0 1 0 3zm13 0a1.5 1.5 0 1 1 0-3 1.5 1.5 0 0 1 0 3zm13 0a1.5 1.5 0 1 1 0-3 1.5 1.5 0 0 1 0 3zm13 0a1.5 1.5 0 1 1 0-3 1.5 1.5 0 0 1 0 3zm13 0a1.5 1.5 0 1 1 0-3 1.5 1.5 0 0 1 0 3zm13 0a1.5 1.5 0 1 1 0-3 1.5 1.5 0 0 1 0 3zm13 0a1.5 1.5 0 1 1 0-3 1.5 1.5 0 0 1 0 3zm13 0a1.5 1.5 0 1 1 0-3 1.5 1.5 0 0 1 0 3zm13 0a1.5 1.5 0 1 1 0-3 1.5 1.5 0 0 1 0 3zm13 0a1.5 1.5 0 1 1 0-3 1.5 1.5 0 0 1 0 3zm13 0a1.5 1.5 0 1 1 0-3 1.5 1.5 0 0 1 0 3zm13 0a1.5 1.5 0 1 1 0-3 1.5 1.5 0 0 1 0 3zm13 0a1.5 1.5 0 1 1 0-3 1.5 1.5 0 0 1 0 3zm13 0a1.5 1.5 0 1 1 0-3 1.5 1.5 0 0 1 0 3zm13 0a1.5 1.5 0 1 1 0-3 1.5 1.5 0 0 1 0 3zm13 0a1.5 1.5 0 1 1 0-3 1.5 1.5 0 0 1 0 3zm13 0a1.5 1.5 0 1 1 0-3 1.5 1.5 0 0 1 0 3zm13 0a1.5 1.5 0 1 1 0-3 1.5 1.5 0 0 1 0 3zm13 0a1.5 1.5 0 1 1 0-3 1.5 1.5 0 0 1 0 3zm13 0a1.5 1.5 0 1 1 0-3 1.5 1.5 0 0 1 0 3zm13 0a1.5 1.5 0 1 1 0-3 1.5 1.5 0 0 1 0 3zm-442 13a1.5 1.5 0 1 1 0-3 1.5 1.5 0 0 1 0 3zm13 0a1.5 1.5 0 1 1 0-3 1.5 1.5 0 0 1 0 3zm13 0a1.5 1.5 0 1 1 0-3 1.5 1.5 0 0 1 0 3zm13 0a1.5 1.5 0 1 1 0-3 1.5 1.5 0 0 1 0 3zm13 0a1.5 1.5 0 1 1 0-3 1.5 1.5 0 0 1 0 3zm13 0a1.5 1.5 0 1 1 0-3 1.5 1.5 0 0 1 0 3zm13 0a1.5 1.5 0 1 1 0-3 1.5 1.5 0 0 1 0 3zm13 0a1.5 1.5 0 1 1 0-3 1.5 1.5 0 0 1 0 3zm13 0a1.5 1.5 0 1 1 0-3 1.5 1.5 0 0 1 0 3zm13 0a1.5 1.5 0 1 1 0-3 1.5 1.5 0 0 1 0 3zm13 0a1.5 1.5 0 1 1 0-3 1.5 1.5 0 0 1 0 3zm13 0a1.5 1.5 0 1 1 0-3 1.5 1.5 0 0 1 0 3zm13 0a1.5 1.5 0 1 1 0-3 1.5 1.5 0 0 1 0 3zm13 0a1.5 1.5 0 1 1 0-3 1.5 1.5 0 0 1 0 3zm13 0a1.5 1.5 0 1 1 0-3 1.5 1.5 0 0 1 0 3zm13 0a1.5 1.5 0 1 1 0-3 1.5 1.5 0 0 1 0 3zm13 0a1.5 1.5 0 1 1 0-3 1.5 1.5 0 0 1 0 3zm13 0a1.5 1.5 0 1 1 0-3 1.5 1.5 0 0 1 0 3zm13 0a1.5 1.5 0 1 1 0-3 1.5 1.5 0 0 1 0 3zm13 0a1.5 1.5 0 1 1 0-3 1.5 1.5 0 0 1 0 3zm13 0a1.5 1.5 0 1 1 0-3 1.5 1.5 0 0 1 0 3zm13 0a1.5 1.5 0 1 1 0-3 1.5 1.5 0 0 1 0 3zm13 0a1.5 1.5 0 1 1 0-3 1.5 1.5 0 0 1 0 3zm13 0a1.5 1.5 0 1 1 0-3 1.5 1.5 0 0 1 0 3zm13 0a1.5 1.5 0 1 1 0-3 1.5 1.5 0 0 1 0 3zm13 0a1.5 1.5 0 1 1 0-3 1.5 1.5 0 0 1 0 3zm13 0a1.5 1.5 0 1 1 0-3 1.5 1.5 0 0 1 0 3zm13 0a1.5 1.5 0 1 1 0-3 1.5 1.5 0 0 1 0 3zm13 0a1.5 1.5 0 1 1 0-3 1.5 1.5 0 0 1 0 3zm13 0a1.5 1.5 0 1 1 0-3 1.5 1.5 0 0 1 0 3zm13 0a1.5 1.5 0 1 1 0-3 1.5 1.5 0 0 1 0 3zm13 0a1.5 1.5 0 1 1 0-3 1.5 1.5 0 0 1 0 3zm13 0a1.5 1.5 0 1 1 0-3 1.5 1.5 0 0 1 0 3zm13 0a1.5 1.5 0 1 1 0-3 1.5 1.5 0 0 1 0 3zm13 0a1.5 1.5 0 1 1 0-3 1.5 1.5 0 0 1 0 3zm-442 13a1.5 1.5 0 1 1 0-3 1.5 1.5 0 0 1 0 3zm13 0a1.5 1.5 0 1 1 0-3 1.5 1.5 0 0 1 0 3zm13 0a1.5 1.5 0 1 1 0-3 1.5 1.5 0 0 1 0 3zm13 0a1.5 1.5 0 1 1 0-3 1.5 1.5 0 0 1 0 3zm13 0a1.5 1.5 0 1 1 0-3 1.5 1.5 0 0 1 0 3zm13 0a1.5 1.5 0 1 1 0-3 1.5 1.5 0 0 1 0 3zm13 0a1.5 1.5 0 1 1 0-3 1.5 1.5 0 0 1 0 3zm13 0a1.5 1.5 0 1 1 0-3 1.5 1.5 0 0 1 0 3zm13 0a1.5 1.5 0 1 1 0-3 1.5 1.5 0 0 1 0 3zm13 0a1.5 1.5 0 1 1 0-3 1.5 1.5 0 0 1 0 3zm13 0a1.5 1.5 0 1 1 0-3 1.5 1.5 0 0 1 0 3zm13 0a1.5 1.5 0 1 1 0-3 1.5 1.5 0 0 1 0 3zm13 0a1.5 1.5 0 1 1 0-3 1.5 1.5 0 0 1 0 3zm13 0a1.5 1.5 0 1 1 0-3 1.5 1.5 0 0 1 0 3zm13 0a1.5 1.5 0 1 1 0-3 1.5 1.5 0 0 1 0 3zm13 0a1.5 1.5 0 1 1 0-3 1.5 1.5 0 0 1 0 3zm13 0a1.5 1.5 0 1 1 0-3 1.5 1.5 0 0 1 0 3zm13 0a1.5 1.5 0 1 1 0-3 1.5 1.5 0 0 1 0 3zm13 0a1.5 1.5 0 1 1 0-3 1.5 1.5 0 0 1 0 3zm13 0a1.5 1.5 0 1 1 0-3 1.5 1.5 0 0 1 0 3zm13 0a1.5 1.5 0 1 1 0-3 1.5 1.5 0 0 1 0 3zm13 0a1.5 1.5 0 1 1 0-3 1.5 1.5 0 0 1 0 3zm13 0a1.5 1.5 0 1 1 0-3 1.5 1.5 0 0 1 0 3zm13 0a1.5 1.5 0 1 1 0-3 1.5 1.5 0 0 1 0 3zm13 0a1.5 1.5 0 1 1 0-3 1.5 1.5 0 0 1 0 3zm13 0a1.5 1.5 0 1 1 0-3 1.5 1.5 0 0 1 0 3zm13 0a1.5 1.5 0 1 1 0-3 1.5 1.5 0 0 1 0 3zm13 0a1.5 1.5 0 1 1 0-3 1.5 1.5 0 0 1 0 3zm13 0a1.5 1.5 0 1 1 0-3 1.5 1.5 0 0 1 0 3zm13 0a1.5 1.5 0 1 1 0-3 1.5 1.5 0 0 1 0 3zm13 0a1.5 1.5 0 1 1 0-3 1.5 1.5 0 0 1 0 3zm13 0a1.5 1.5 0 1 1 0-3 1.5 1.5 0 0 1 0 3zm13 0a1.5 1.5 0 1 1 0-3 1.5 1.5 0 0 1 0 3zm13 0a1.5 1.5 0 1 1 0-3 1.5 1.5 0 0 1 0 3zm13 0a1.5 1.5 0 1 1 0-3 1.5 1.5 0 0 1 0 3zm-442 13a1.5 1.5 0 1 1 0-3 1.5 1.5 0 0 1 0 3zm13 0a1.5 1.5 0 1 1 0-3 1.5 1.5 0 0 1 0 3zm13 0a1.5 1.5 0 1 1 0-3 1.5 1.5 0 0 1 0 3zm13 0a1.5 1.5 0 1 1 0-3 1.5 1.5 0 0 1 0 3zm13 0a1.5 1.5 0 1 1 0-3 1.5 1.5 0 0 1 0 3zm13 0a1.5 1.5 0 1 1 0-3 1.5 1.5 0 0 1 0 3zm13 0a1.5 1.5 0 1 1 0-3 1.5 1.5 0 0 1 0 3zm13 0a1.5 1.5 0 1 1 0-3 1.5 1.5 0 0 1 0 3zm13 0a1.5 1.5 0 1 1 0-3 1.5 1.5 0 0 1 0 3zm13 0a1.5 1.5 0 1 1 0-3 1.5 1.5 0 0 1 0 3zm13 0a1.5 1.5 0 1 1 0-3 1.5 1.5 0 0 1 0 3zm13 0a1.5 1.5 0 1 1 0-3 1.5 1.5 0 0 1 0 3zm13 0a1.5 1.5 0 1 1 0-3 1.5 1.5 0 0 1 0 3zm13 0a1.5 1.5 0 1 1 0-3 1.5 1.5 0 0 1 0 3zm13 0a1.5 1.5 0 1 1 0-3 1.5 1.5 0 0 1 0 3zm13 0a1.5 1.5 0 1 1 0-3 1.5 1.5 0 0 1 0 3zm13 0a1.5 1.5 0 1 1 0-3 1.5 1.5 0 0 1 0 3zm13 0a1.5 1.5 0 1 1 0-3 1.5 1.5 0 0 1 0 3zm13 0a1.5 1.5 0 1 1 0-3 1.5 1.5 0 0 1 0 3zm13 0a1.5 1.5 0 1 1 0-3 1.5 1.5 0 0 1 0 3zm13 0a1.5 1.5 0 1 1 0-3 1.5 1.5 0 0 1 0 3zm13 0a1.5 1.5 0 1 1 0-3 1.5 1.5 0 0 1 0 3zm13 0a1.5 1.5 0 1 1 0-3 1.5 1.5 0 0 1 0 3zm13 0a1.5 1.5 0 1 1 0-3 1.5 1.5 0 0 1 0 3zm13 0a1.5 1.5 0 1 1 0-3 1.5 1.5 0 0 1 0 3zm13 0a1.5 1.5 0 1 1 0-3 1.5 1.5 0 0 1 0 3zm13 0a1.5 1.5 0 1 1 0-3 1.5 1.5 0 0 1 0 3zm13 0a1.5 1.5 0 1 1 0-3 1.5 1.5 0 0 1 0 3zm13 0a1.5 1.5 0 1 1 0-3 1.5 1.5 0 0 1 0 3zm13 0a1.5 1.5 0 1 1 0-3 1.5 1.5 0 0 1 0 3zm13 0a1.5 1.5 0 1 1 0-3 1.5 1.5 0 0 1 0 3zm13 0a1.5 1.5 0 1 1 0-3 1.5 1.5 0 0 1 0 3zm13 0a1.5 1.5 0 1 1 0-3 1.5 1.5 0 0 1 0 3zm13 0a1.5 1.5 0 1 1 0-3 1.5 1.5 0 0 1 0 3zm13 0a1.5 1.5 0 1 1 0-3 1.5 1.5 0 0 1 0 3zm-442 13a1.5 1.5 0 1 1 0-3 1.5 1.5 0 0 1 0 3zm13 0a1.5 1.5 0 1 1 0-3 1.5 1.5 0 0 1 0 3zm13 0a1.5 1.5 0 1 1 0-3 1.5 1.5 0 0 1 0 3zm13 0a1.5 1.5 0 1 1 0-3 1.5 1.5 0 0 1 0 3zm13 0a1.5 1.5 0 1 1 0-3 1.5 1.5 0 0 1 0 3zm13 0a1.5 1.5 0 1 1 0-3 1.5 1.5 0 0 1 0 3zm13 0a1.5 1.5 0 1 1 0-3 1.5 1.5 0 0 1 0 3zm13 0a1.5 1.5 0 1 1 0-3 1.5 1.5 0 0 1 0 3zm13 0a1.5 1.5 0 1 1 0-3 1.5 1.5 0 0 1 0 3zm13 0a1.5 1.5 0 1 1 0-3 1.5 1.5 0 0 1 0 3zm13 0a1.5 1.5 0 1 1 0-3 1.5 1.5 0 0 1 0 3zm13 0a1.5 1.5 0 1 1 0-3 1.5 1.5 0 0 1 0 3zm13 0a1.5 1.5 0 1 1 0-3 1.5 1.5 0 0 1 0 3zm13 0a1.5 1.5 0 1 1 0-3 1.5 1.5 0 0 1 0 3zm13 0a1.5 1.5 0 1 1 0-3 1.5 1.5 0 0 1 0 3zm13 0a1.5 1.5 0 1 1 0-3 1.5 1.5 0 0 1 0 3zm13 0a1.5 1.5 0 1 1 0-3 1.5 1.5 0 0 1 0 3zm13 0a1.5 1.5 0 1 1 0-3 1.5 1.5 0 0 1 0 3zm13 0a1.5 1.5 0 1 1 0-3 1.5 1.5 0 0 1 0 3zm13 0a1.5 1.5 0 1 1 0-3 1.5 1.5 0 0 1 0 3zm13 0a1.5 1.5 0 1 1 0-3 1.5 1.5 0 0 1 0 3zm13 0a1.5 1.5 0 1 1 0-3 1.5 1.5 0 0 1 0 3zm13 0a1.5 1.5 0 1 1 0-3 1.5 1.5 0 0 1 0 3zm13 0a1.5 1.5 0 1 1 0-3 1.5 1.5 0 0 1 0 3zm13 0a1.5 1.5 0 1 1 0-3 1.5 1.5 0 0 1 0 3zm13 0a1.5 1.5 0 1 1 0-3 1.5 1.5 0 0 1 0 3zm13 0a1.5 1.5 0 1 1 0-3 1.5 1.5 0 0 1 0 3zm13 0a1.5 1.5 0 1 1 0-3 1.5 1.5 0 0 1 0 3zm13 0a1.5 1.5 0 1 1 0-3 1.5 1.5 0 0 1 0 3zm13 0a1.5 1.5 0 1 1 0-3 1.5 1.5 0 0 1 0 3zm13 0a1.5 1.5 0 1 1 0-3 1.5 1.5 0 0 1 0 3zm13 0a1.5 1.5 0 1 1 0-3 1.5 1.5 0 0 1 0 3zm13 0a1.5 1.5 0 1 1 0-3 1.5 1.5 0 0 1 0 3zm13 0a1.5 1.5 0 1 1 0-3 1.5 1.5 0 0 1 0 3zm13 0a1.5 1.5 0 1 1 0-3 1.5 1.5 0 0 1 0 3zm-442 13a1.5 1.5 0 1 1 0-3 1.5 1.5 0 0 1 0 3zm13 0a1.5 1.5 0 1 1 0-3 1.5 1.5 0 0 1 0 3zm13 0a1.5 1.5 0 1 1 0-3 1.5 1.5 0 0 1 0 3zm13 0a1.5 1.5 0 1 1 0-3 1.5 1.5 0 0 1 0 3zm13 0a1.5 1.5 0 1 1 0-3 1.5 1.5 0 0 1 0 3zm13 0a1.5 1.5 0 1 1 0-3 1.5 1.5 0 0 1 0 3zm13 0a1.5 1.5 0 1 1 0-3 1.5 1.5 0 0 1 0 3zm13 0a1.5 1.5 0 1 1 0-3 1.5 1.5 0 0 1 0 3zm13 0a1.5 1.5 0 1 1 0-3 1.5 1.5 0 0 1 0 3zm13 0a1.5 1.5 0 1 1 0-3 1.5 1.5 0 0 1 0 3zm13 0a1.5 1.5 0 1 1 0-3 1.5 1.5 0 0 1 0 3zm13 0a1.5 1.5 0 1 1 0-3 1.5 1.5 0 0 1 0 3zm13 0a1.5 1.5 0 1 1 0-3 1.5 1.5 0 0 1 0 3zm13 0a1.5 1.5 0 1 1 0-3 1.5 1.5 0 0 1 0 3zm13 0a1.5 1.5 0 1 1 0-3 1.5 1.5 0 0 1 0 3zm13 0a1.5 1.5 0 1 1 0-3 1.5 1.5 0 0 1 0 3zm13 0a1.5 1.5 0 1 1 0-3 1.5 1.5 0 0 1 0 3zm13 0a1.5 1.5 0 1 1 0-3 1.5 1.5 0 0 1 0 3zm13 0a1.5 1.5 0 1 1 0-3 1.5 1.5 0 0 1 0 3zm13 0a1.5 1.5 0 1 1 0-3 1.5 1.5 0 0 1 0 3zm13 0a1.5 1.5 0 1 1 0-3 1.5 1.5 0 0 1 0 3zm13 0a1.5 1.5 0 1 1 0-3 1.5 1.5 0 0 1 0 3zm13 0a1.5 1.5 0 1 1 0-3 1.5 1.5 0 0 1 0 3zm13 0a1.5 1.5 0 1 1 0-3 1.5 1.5 0 0 1 0 3zm13 0a1.5 1.5 0 1 1 0-3 1.5 1.5 0 0 1 0 3zm13 0a1.5 1.5 0 1 1 0-3 1.5 1.5 0 0 1 0 3zm13 0a1.5 1.5 0 1 1 0-3 1.5 1.5 0 0 1 0 3zm13 0a1.5 1.5 0 1 1 0-3 1.5 1.5 0 0 1 0 3zm13 0a1.5 1.5 0 1 1 0-3 1.5 1.5 0 0 1 0 3zm13 0a1.5 1.5 0 1 1 0-3 1.5 1.5 0 0 1 0 3zm13 0a1.5 1.5 0 1 1 0-3 1.5 1.5 0 0 1 0 3zm13 0a1.5 1.5 0 1 1 0-3 1.5 1.5 0 0 1 0 3zm13 0a1.5 1.5 0 1 1 0-3 1.5 1.5 0 0 1 0 3zm13 0a1.5 1.5 0 1 1 0-3 1.5 1.5 0 0 1 0 3zm13 0a1.5 1.5 0 1 1 0-3 1.5 1.5 0 0 1 0 3zm-442 13a1.5 1.5 0 1 1 0-3 1.5 1.5 0 0 1 0 3zm13 0a1.5 1.5 0 1 1 0-3 1.5 1.5 0 0 1 0 3zm13 0a1.5 1.5 0 1 1 0-3 1.5 1.5 0 0 1 0 3zm13 0a1.5 1.5 0 1 1 0-3 1.5 1.5 0 0 1 0 3zm13 0a1.5 1.5 0 1 1 0-3 1.5 1.5 0 0 1 0 3zm13 0a1.5 1.5 0 1 1 0-3 1.5 1.5 0 0 1 0 3zm13 0a1.5 1.5 0 1 1 0-3 1.5 1.5 0 0 1 0 3zm13 0a1.5 1.5 0 1 1 0-3 1.5 1.5 0 0 1 0 3zm13 0a1.5 1.5 0 1 1 0-3 1.5 1.5 0 0 1 0 3zm13 0a1.5 1.5 0 1 1 0-3 1.5 1.5 0 0 1 0 3zm13 0a1.5 1.5 0 1 1 0-3 1.5 1.5 0 0 1 0 3zm13 0a1.5 1.5 0 1 1 0-3 1.5 1.5 0 0 1 0 3zm13 0a1.5 1.5 0 1 1 0-3 1.5 1.5 0 0 1 0 3zm13 0a1.5 1.5 0 1 1 0-3 1.5 1.5 0 0 1 0 3zm13 0a1.5 1.5 0 1 1 0-3 1.5 1.5 0 0 1 0 3zm13 0a1.5 1.5 0 1 1 0-3 1.5 1.5 0 0 1 0 3zm13 0a1.5 1.5 0 1 1 0-3 1.5 1.5 0 0 1 0 3zm13 0a1.5 1.5 0 1 1 0-3 1.5 1.5 0 0 1 0 3zm13 0a1.5 1.5 0 1 1 0-3 1.5 1.5 0 0 1 0 3zm13 0a1.5 1.5 0 1 1 0-3 1.5 1.5 0 0 1 0 3zm13 0a1.5 1.5 0 1 1 0-3 1.5 1.5 0 0 1 0 3zm13 0a1.5 1.5 0 1 1 0-3 1.5 1.5 0 0 1 0 3zm13 0a1.5 1.5 0 1 1 0-3 1.5 1.5 0 0 1 0 3zm13 0a1.5 1.5 0 1 1 0-3 1.5 1.5 0 0 1 0 3zm13 0a1.5 1.5 0 1 1 0-3 1.5 1.5 0 0 1 0 3zm13 0a1.5 1.5 0 1 1 0-3 1.5 1.5 0 0 1 0 3zm13 0a1.5 1.5 0 1 1 0-3 1.5 1.5 0 0 1 0 3zm13 0a1.5 1.5 0 1 1 0-3 1.5 1.5 0 0 1 0 3zm13 0a1.5 1.5 0 1 1 0-3 1.5 1.5 0 0 1 0 3zm13 0a1.5 1.5 0 1 1 0-3 1.5 1.5 0 0 1 0 3zm13 0a1.5 1.5 0 1 1 0-3 1.5 1.5 0 0 1 0 3zm13 0a1.5 1.5 0 1 1 0-3 1.5 1.5 0 0 1 0 3zm13 0a1.5 1.5 0 1 1 0-3 1.5 1.5 0 0 1 0 3zm13 0a1.5 1.5 0 1 1 0-3 1.5 1.5 0 0 1 0 3zm13 0a1.5 1.5 0 1 1 0-3 1.5 1.5 0 0 1 0 3zm-442 13a1.5 1.5 0 1 1 0-3 1.5 1.5 0 0 1 0 3zm13 0a1.5 1.5 0 1 1 0-3 1.5 1.5 0 0 1 0 3zm13 0a1.5 1.5 0 1 1 0-3 1.5 1.5 0 0 1 0 3zm13 0a1.5 1.5 0 1 1 0-3 1.5 1.5 0 0 1 0 3zm13 0a1.5 1.5 0 1 1 0-3 1.5 1.5 0 0 1 0 3zm13 0a1.5 1.5 0 1 1 0-3 1.5 1.5 0 0 1 0 3zm13 0a1.5 1.5 0 1 1 0-3 1.5 1.5 0 0 1 0 3zm13 0a1.5 1.5 0 1 1 0-3 1.5 1.5 0 0 1 0 3zm13 0a1.5 1.5 0 1 1 0-3 1.5 1.5 0 0 1 0 3zm13 0a1.5 1.5 0 1 1 0-3 1.5 1.5 0 0 1 0 3zm13 0a1.5 1.5 0 1 1 0-3 1.5 1.5 0 0 1 0 3zm13 0a1.5 1.5 0 1 1 0-3 1.5 1.5 0 0 1 0 3zm13 0a1.5 1.5 0 1 1 0-3 1.5 1.5 0 0 1 0 3zm13 0a1.5 1.5 0 1 1 0-3 1.5 1.5 0 0 1 0 3zm13 0a1.5 1.5 0 1 1 0-3 1.5 1.5 0 0 1 0 3zm13 0a1.5 1.5 0 1 1 0-3 1.5 1.5 0 0 1 0 3zm13 0a1.5 1.5 0 1 1 0-3 1.5 1.5 0 0 1 0 3zm13 0a1.5 1.5 0 1 1 0-3 1.5 1.5 0 0 1 0 3zm13 0a1.5 1.5 0 1 1 0-3 1.5 1.5 0 0 1 0 3zm13 0a1.5 1.5 0 1 1 0-3 1.5 1.5 0 0 1 0 3zm13 0a1.5 1.5 0 1 1 0-3 1.5 1.5 0 0 1 0 3zm13 0a1.5 1.5 0 1 1 0-3 1.5 1.5 0 0 1 0 3zm13 0a1.5 1.5 0 1 1 0-3 1.5 1.5 0 0 1 0 3zm13 0a1.5 1.5 0 1 1 0-3 1.5 1.5 0 0 1 0 3zm13 0a1.5 1.5 0 1 1 0-3 1.5 1.5 0 0 1 0 3zm13 0a1.5 1.5 0 1 1 0-3 1.5 1.5 0 0 1 0 3zm13 0a1.5 1.5 0 1 1 0-3 1.5 1.5 0 0 1 0 3zm13 0a1.5 1.5 0 1 1 0-3 1.5 1.5 0 0 1 0 3zm13 0a1.5 1.5 0 1 1 0-3 1.5 1.5 0 0 1 0 3zm13 0a1.5 1.5 0 1 1 0-3 1.5 1.5 0 0 1 0 3zm13 0a1.5 1.5 0 1 1 0-3 1.5 1.5 0 0 1 0 3zm13 0a1.5 1.5 0 1 1 0-3 1.5 1.5 0 0 1 0 3zm13 0a1.5 1.5 0 1 1 0-3 1.5 1.5 0 0 1 0 3zm13 0a1.5 1.5 0 1 1 0-3 1.5 1.5 0 0 1 0 3zm13 0a1.5 1.5 0 1 1 0-3 1.5 1.5 0 0 1 0 3zm-442 13a1.5 1.5 0 1 1 0-3 1.5 1.5 0 0 1 0 3zm13 0a1.5 1.5 0 1 1 0-3 1.5 1.5 0 0 1 0 3zm13 0a1.5 1.5 0 1 1 0-3 1.5 1.5 0 0 1 0 3zm13 0a1.5 1.5 0 1 1 0-3 1.5 1.5 0 0 1 0 3zm13 0a1.5 1.5 0 1 1 0-3 1.5 1.5 0 0 1 0 3zm13 0a1.5 1.5 0 1 1 0-3 1.5 1.5 0 0 1 0 3zm13 0a1.5 1.5 0 1 1 0-3 1.5 1.5 0 0 1 0 3zm13 0a1.5 1.5 0 1 1 0-3 1.5 1.5 0 0 1 0 3zm13 0a1.5 1.5 0 1 1 0-3 1.5 1.5 0 0 1 0 3zm13 0a1.5 1.5 0 1 1 0-3 1.5 1.5 0 0 1 0 3zm13 0a1.5 1.5 0 1 1 0-3 1.5 1.5 0 0 1 0 3zm13 0a1.5 1.5 0 1 1 0-3 1.5 1.5 0 0 1 0 3zm13 0a1.5 1.5 0 1 1 0-3 1.5 1.5 0 0 1 0 3zm13 0a1.5 1.5 0 1 1 0-3 1.5 1.5 0 0 1 0 3zm13 0a1.5 1.5 0 1 1 0-3 1.5 1.5 0 0 1 0 3zm13 0a1.5 1.5 0 1 1 0-3 1.5 1.5 0 0 1 0 3zm13 0a1.5 1.5 0 1 1 0-3 1.5 1.5 0 0 1 0 3zm13 0a1.5 1.5 0 1 1 0-3 1.5 1.5 0 0 1 0 3zm13 0a1.5 1.5 0 1 1 0-3 1.5 1.5 0 0 1 0 3zm13 0a1.5 1.5 0 1 1 0-3 1.5 1.5 0 0 1 0 3zm13 0a1.5 1.5 0 1 1 0-3 1.5 1.5 0 0 1 0 3zm13 0a1.5 1.5 0 1 1 0-3 1.5 1.5 0 0 1 0 3zm13 0a1.5 1.5 0 1 1 0-3 1.5 1.5 0 0 1 0 3zm13 0a1.5 1.5 0 1 1 0-3 1.5 1.5 0 0 1 0 3zm13 0a1.5 1.5 0 1 1 0-3 1.5 1.5 0 0 1 0 3zm13 0a1.5 1.5 0 1 1 0-3 1.5 1.5 0 0 1 0 3zm13 0a1.5 1.5 0 1 1 0-3 1.5 1.5 0 0 1 0 3zm13 0a1.5 1.5 0 1 1 0-3 1.5 1.5 0 0 1 0 3zm13 0a1.5 1.5 0 1 1 0-3 1.5 1.5 0 0 1 0 3zm13 0a1.5 1.5 0 1 1 0-3 1.5 1.5 0 0 1 0 3zm13 0a1.5 1.5 0 1 1 0-3 1.5 1.5 0 0 1 0 3zm13 0a1.5 1.5 0 1 1 0-3 1.5 1.5 0 0 1 0 3zm13 0a1.5 1.5 0 1 1 0-3 1.5 1.5 0 0 1 0 3zm13 0a1.5 1.5 0 1 1 0-3 1.5 1.5 0 0 1 0 3zm13 0a1.5 1.5 0 1 1 0-3 1.5 1.5 0 0 1 0 3zm-442 13a1.5 1.5 0 1 1 0-3 1.5 1.5 0 0 1 0 3zm13 0a1.5 1.5 0 1 1 0-3 1.5 1.5 0 0 1 0 3zm13 0a1.5 1.5 0 1 1 0-3 1.5 1.5 0 0 1 0 3zm13 0a1.5 1.5 0 1 1 0-3 1.5 1.5 0 0 1 0 3zm13 0a1.5 1.5 0 1 1 0-3 1.5 1.5 0 0 1 0 3zm13 0a1.5 1.5 0 1 1 0-3 1.5 1.5 0 0 1 0 3zm13 0a1.5 1.5 0 1 1 0-3 1.5 1.5 0 0 1 0 3zm13 0a1.5 1.5 0 1 1 0-3 1.5 1.5 0 0 1 0 3zm13 0a1.5 1.5 0 1 1 0-3 1.5 1.5 0 0 1 0 3zm13 0a1.5 1.5 0 1 1 0-3 1.5 1.5 0 0 1 0 3zm13 0a1.5 1.5 0 1 1 0-3 1.5 1.5 0 0 1 0 3zm13 0a1.5 1.5 0 1 1 0-3 1.5 1.5 0 0 1 0 3zm13 0a1.5 1.5 0 1 1 0-3 1.5 1.5 0 0 1 0 3zm13 0a1.5 1.5 0 1 1 0-3 1.5 1.5 0 0 1 0 3zm13 0a1.5 1.5 0 1 1 0-3 1.5 1.5 0 0 1 0 3zm13 0a1.5 1.5 0 1 1 0-3 1.5 1.5 0 0 1 0 3zm13 0a1.5 1.5 0 1 1 0-3 1.5 1.5 0 0 1 0 3zm13 0a1.5 1.5 0 1 1 0-3 1.5 1.5 0 0 1 0 3zm13 0a1.5 1.5 0 1 1 0-3 1.5 1.5 0 0 1 0 3zm13 0a1.5 1.5 0 1 1 0-3 1.5 1.5 0 0 1 0 3zm13 0a1.5 1.5 0 1 1 0-3 1.5 1.5 0 0 1 0 3zm13 0a1.5 1.5 0 1 1 0-3 1.5 1.5 0 0 1 0 3zm13 0a1.5 1.5 0 1 1 0-3 1.5 1.5 0 0 1 0 3zm13 0a1.5 1.5 0 1 1 0-3 1.5 1.5 0 0 1 0 3zm13 0a1.5 1.5 0 1 1 0-3 1.5 1.5 0 0 1 0 3zm13 0a1.5 1.5 0 1 1 0-3 1.5 1.5 0 0 1 0 3zm13 0a1.5 1.5 0 1 1 0-3 1.5 1.5 0 0 1 0 3zm13 0a1.5 1.5 0 1 1 0-3 1.5 1.5 0 0 1 0 3zm13 0a1.5 1.5 0 1 1 0-3 1.5 1.5 0 0 1 0 3zm13 0a1.5 1.5 0 1 1 0-3 1.5 1.5 0 0 1 0 3zm13 0a1.5 1.5 0 1 1 0-3 1.5 1.5 0 0 1 0 3zm13 0a1.5 1.5 0 1 1 0-3 1.5 1.5 0 0 1 0 3zm13 0a1.5 1.5 0 1 1 0-3 1.5 1.5 0 0 1 0 3zm13 0a1.5 1.5 0 1 1 0-3 1.5 1.5 0 0 1 0 3zm13 0a1.5 1.5 0 1 1 0-3 1.5 1.5 0 0 1 0 3zm-442 13a1.5 1.5 0 1 1 0-3 1.5 1.5 0 0 1 0 3zm13 0a1.5 1.5 0 1 1 0-3 1.5 1.5 0 0 1 0 3zm13 0a1.5 1.5 0 1 1 0-3 1.5 1.5 0 0 1 0 3zm13 0a1.5 1.5 0 1 1 0-3 1.5 1.5 0 0 1 0 3zm13 0a1.5 1.5 0 1 1 0-3 1.5 1.5 0 0 1 0 3zm13 0a1.5 1.5 0 1 1 0-3 1.5 1.5 0 0 1 0 3zm13 0a1.5 1.5 0 1 1 0-3 1.5 1.5 0 0 1 0 3zm13 0a1.5 1.5 0 1 1 0-3 1.5 1.5 0 0 1 0 3zm13 0a1.5 1.5 0 1 1 0-3 1.5 1.5 0 0 1 0 3zm13 0a1.5 1.5 0 1 1 0-3 1.5 1.5 0 0 1 0 3zm13 0a1.5 1.5 0 1 1 0-3 1.5 1.5 0 0 1 0 3zm13 0a1.5 1.5 0 1 1 0-3 1.5 1.5 0 0 1 0 3zm13 0a1.5 1.5 0 1 1 0-3 1.5 1.5 0 0 1 0 3zm13 0a1.5 1.5 0 1 1 0-3 1.5 1.5 0 0 1 0 3zm13 0a1.5 1.5 0 1 1 0-3 1.5 1.5 0 0 1 0 3zm13 0a1.5 1.5 0 1 1 0-3 1.5 1.5 0 0 1 0 3zm13 0a1.5 1.5 0 1 1 0-3 1.5 1.5 0 0 1 0 3zm13 0a1.5 1.5 0 1 1 0-3 1.5 1.5 0 0 1 0 3zm13 0a1.5 1.5 0 1 1 0-3 1.5 1.5 0 0 1 0 3zm13 0a1.5 1.5 0 1 1 0-3 1.5 1.5 0 0 1 0 3zm13 0a1.5 1.5 0 1 1 0-3 1.5 1.5 0 0 1 0 3zm13 0a1.5 1.5 0 1 1 0-3 1.5 1.5 0 0 1 0 3zm13 0a1.5 1.5 0 1 1 0-3 1.5 1.5 0 0 1 0 3zm13 0a1.5 1.5 0 1 1 0-3 1.5 1.5 0 0 1 0 3zm13 0a1.5 1.5 0 1 1 0-3 1.5 1.5 0 0 1 0 3zm13 0a1.5 1.5 0 1 1 0-3 1.5 1.5 0 0 1 0 3zm13 0a1.5 1.5 0 1 1 0-3 1.5 1.5 0 0 1 0 3zm13 0a1.5 1.5 0 1 1 0-3 1.5 1.5 0 0 1 0 3zm13 0a1.5 1.5 0 1 1 0-3 1.5 1.5 0 0 1 0 3zm13 0a1.5 1.5 0 1 1 0-3 1.5 1.5 0 0 1 0 3zm13 0a1.5 1.5 0 1 1 0-3 1.5 1.5 0 0 1 0 3zm13 0a1.5 1.5 0 1 1 0-3 1.5 1.5 0 0 1 0 3zm13 0a1.5 1.5 0 1 1 0-3 1.5 1.5 0 0 1 0 3zm13 0a1.5 1.5 0 1 1 0-3 1.5 1.5 0 0 1 0 3zm13 0a1.5 1.5 0 1 1 0-3 1.5 1.5 0 0 1 0 3zm-442 13a1.5 1.5 0 1 1 0-3 1.5 1.5 0 0 1 0 3zm13 0a1.5 1.5 0 1 1 0-3 1.5 1.5 0 0 1 0 3zm13 0a1.5 1.5 0 1 1 0-3 1.5 1.5 0 0 1 0 3zm13 0a1.5 1.5 0 1 1 0-3 1.5 1.5 0 0 1 0 3zm13 0a1.5 1.5 0 1 1 0-3 1.5 1.5 0 0 1 0 3zm13 0a1.5 1.5 0 1 1 0-3 1.5 1.5 0 0 1 0 3zm13 0a1.5 1.5 0 1 1 0-3 1.5 1.5 0 0 1 0 3zm13 0a1.5 1.5 0 1 1 0-3 1.5 1.5 0 0 1 0 3zm13 0a1.5 1.5 0 1 1 0-3 1.5 1.5 0 0 1 0 3zm13 0a1.5 1.5 0 1 1 0-3 1.5 1.5 0 0 1 0 3zm13 0a1.5 1.5 0 1 1 0-3 1.5 1.5 0 0 1 0 3zm13 0a1.5 1.5 0 1 1 0-3 1.5 1.5 0 0 1 0 3zm13 0a1.5 1.5 0 1 1 0-3 1.5 1.5 0 0 1 0 3zm13 0a1.5 1.5 0 1 1 0-3 1.5 1.5 0 0 1 0 3zm13 0a1.5 1.5 0 1 1 0-3 1.5 1.5 0 0 1 0 3zm13 0a1.5 1.5 0 1 1 0-3 1.5 1.5 0 0 1 0 3zm13 0a1.5 1.5 0 1 1 0-3 1.5 1.5 0 0 1 0 3zm13 0a1.5 1.5 0 1 1 0-3 1.5 1.5 0 0 1 0 3zm13 0a1.5 1.5 0 1 1 0-3 1.5 1.5 0 0 1 0 3zm13 0a1.5 1.5 0 1 1 0-3 1.5 1.5 0 0 1 0 3zm13 0a1.5 1.5 0 1 1 0-3 1.5 1.5 0 0 1 0 3zm13 0a1.5 1.5 0 1 1 0-3 1.5 1.5 0 0 1 0 3zm13 0a1.5 1.5 0 1 1 0-3 1.5 1.5 0 0 1 0 3zm13 0a1.5 1.5 0 1 1 0-3 1.5 1.5 0 0 1 0 3zm13 0a1.5 1.5 0 1 1 0-3 1.5 1.5 0 0 1 0 3zm13 0a1.5 1.5 0 1 1 0-3 1.5 1.5 0 0 1 0 3zm13 0a1.5 1.5 0 1 1 0-3 1.5 1.5 0 0 1 0 3zm13 0a1.5 1.5 0 1 1 0-3 1.5 1.5 0 0 1 0 3zm13 0a1.5 1.5 0 1 1 0-3 1.5 1.5 0 0 1 0 3zm13 0a1.5 1.5 0 1 1 0-3 1.5 1.5 0 0 1 0 3zm13 0a1.5 1.5 0 1 1 0-3 1.5 1.5 0 0 1 0 3zm13 0a1.5 1.5 0 1 1 0-3 1.5 1.5 0 0 1 0 3zm13 0a1.5 1.5 0 1 1 0-3 1.5 1.5 0 0 1 0 3zm13 0a1.5 1.5 0 1 1 0-3 1.5 1.5 0 0 1 0 3zm13 0a1.5 1.5 0 1 1 0-3 1.5 1.5 0 0 1 0 3zm-442 13a1.5 1.5 0 1 1 0-3 1.5 1.5 0 0 1 0 3zm13 0a1.5 1.5 0 1 1 0-3 1.5 1.5 0 0 1 0 3zm13 0a1.5 1.5 0 1 1 0-3 1.5 1.5 0 0 1 0 3zm13 0a1.5 1.5 0 1 1 0-3 1.5 1.5 0 0 1 0 3zm13 0a1.5 1.5 0 1 1 0-3 1.5 1.5 0 0 1 0 3zm13 0a1.5 1.5 0 1 1 0-3 1.5 1.5 0 0 1 0 3zm13 0a1.5 1.5 0 1 1 0-3 1.5 1.5 0 0 1 0 3zm13 0a1.5 1.5 0 1 1 0-3 1.5 1.5 0 0 1 0 3zm13 0a1.5 1.5 0 1 1 0-3 1.5 1.5 0 0 1 0 3zm13 0a1.5 1.5 0 1 1 0-3 1.5 1.5 0 0 1 0 3zm13 0a1.5 1.5 0 1 1 0-3 1.5 1.5 0 0 1 0 3zm13 0a1.5 1.5 0 1 1 0-3 1.5 1.5 0 0 1 0 3zm13 0a1.5 1.5 0 1 1 0-3 1.5 1.5 0 0 1 0 3zm13 0a1.5 1.5 0 1 1 0-3 1.5 1.5 0 0 1 0 3zm13 0a1.5 1.5 0 1 1 0-3 1.5 1.5 0 0 1 0 3zm13 0a1.5 1.5 0 1 1 0-3 1.5 1.5 0 0 1 0 3zm13 0a1.5 1.5 0 1 1 0-3 1.5 1.5 0 0 1 0 3zm13 0a1.5 1.5 0 1 1 0-3 1.5 1.5 0 0 1 0 3zm13 0a1.5 1.5 0 1 1 0-3 1.5 1.5 0 0 1 0 3zm13 0a1.5 1.5 0 1 1 0-3 1.5 1.5 0 0 1 0 3zm13 0a1.5 1.5 0 1 1 0-3 1.5 1.5 0 0 1 0 3zm13 0a1.5 1.5 0 1 1 0-3 1.5 1.5 0 0 1 0 3zm13 0a1.5 1.5 0 1 1 0-3 1.5 1.5 0 0 1 0 3zm13 0a1.5 1.5 0 1 1 0-3 1.5 1.5 0 0 1 0 3zm13 0a1.5 1.5 0 1 1 0-3 1.5 1.5 0 0 1 0 3zm13 0a1.5 1.5 0 1 1 0-3 1.5 1.5 0 0 1 0 3zm13 0a1.5 1.5 0 1 1 0-3 1.5 1.5 0 0 1 0 3zm13 0a1.5 1.5 0 1 1 0-3 1.5 1.5 0 0 1 0 3zm13 0a1.5 1.5 0 1 1 0-3 1.5 1.5 0 0 1 0 3zm13 0a1.5 1.5 0 1 1 0-3 1.5 1.5 0 0 1 0 3zm13 0a1.5 1.5 0 1 1 0-3 1.5 1.5 0 0 1 0 3zm13 0a1.5 1.5 0 1 1 0-3 1.5 1.5 0 0 1 0 3zm13 0a1.5 1.5 0 1 1 0-3 1.5 1.5 0 0 1 0 3zm13 0a1.5 1.5 0 1 1 0-3 1.5 1.5 0 0 1 0 3zm13 0a1.5 1.5 0 1 1 0-3 1.5 1.5 0 0 1 0 3zm-442 13a1.5 1.5 0 1 1 0-3 1.5 1.5 0 0 1 0 3zm13 0a1.5 1.5 0 1 1 0-3 1.5 1.5 0 0 1 0 3zm13 0a1.5 1.5 0 1 1 0-3 1.5 1.5 0 0 1 0 3zm13 0a1.5 1.5 0 1 1 0-3 1.5 1.5 0 0 1 0 3zm13 0a1.5 1.5 0 1 1 0-3 1.5 1.5 0 0 1 0 3zm13 0a1.5 1.5 0 1 1 0-3 1.5 1.5 0 0 1 0 3zm13 0a1.5 1.5 0 1 1 0-3 1.5 1.5 0 0 1 0 3zm13 0a1.5 1.5 0 1 1 0-3 1.5 1.5 0 0 1 0 3zm13 0a1.5 1.5 0 1 1 0-3 1.5 1.5 0 0 1 0 3zm13 0a1.5 1.5 0 1 1 0-3 1.5 1.5 0 0 1 0 3zm13 0a1.5 1.5 0 1 1 0-3 1.5 1.5 0 0 1 0 3zm13 0a1.5 1.5 0 1 1 0-3 1.5 1.5 0 0 1 0 3zm13 0a1.5 1.5 0 1 1 0-3 1.5 1.5 0 0 1 0 3zm13 0a1.5 1.5 0 1 1 0-3 1.5 1.5 0 0 1 0 3zm13 0a1.5 1.5 0 1 1 0-3 1.5 1.5 0 0 1 0 3zm13 0a1.5 1.5 0 1 1 0-3 1.5 1.5 0 0 1 0 3zm13 0a1.5 1.5 0 1 1 0-3 1.5 1.5 0 0 1 0 3zm13 0a1.5 1.5 0 1 1 0-3 1.5 1.5 0 0 1 0 3zm13 0a1.5 1.5 0 1 1 0-3 1.5 1.5 0 0 1 0 3zm13 0a1.5 1.5 0 1 1 0-3 1.5 1.5 0 0 1 0 3zm13 0a1.5 1.5 0 1 1 0-3 1.5 1.5 0 0 1 0 3zm13 0a1.5 1.5 0 1 1 0-3 1.5 1.5 0 0 1 0 3zm13 0a1.5 1.5 0 1 1 0-3 1.5 1.5 0 0 1 0 3zm13 0a1.5 1.5 0 1 1 0-3 1.5 1.5 0 0 1 0 3zm13 0a1.5 1.5 0 1 1 0-3 1.5 1.5 0 0 1 0 3zm13 0a1.5 1.5 0 1 1 0-3 1.5 1.5 0 0 1 0 3zm13 0a1.5 1.5 0 1 1 0-3 1.5 1.5 0 0 1 0 3zm13 0a1.5 1.5 0 1 1 0-3 1.5 1.5 0 0 1 0 3zm13 0a1.5 1.5 0 1 1 0-3 1.5 1.5 0 0 1 0 3zm13 0a1.5 1.5 0 1 1 0-3 1.5 1.5 0 0 1 0 3zm13 0a1.5 1.5 0 1 1 0-3 1.5 1.5 0 0 1 0 3zm13 0a1.5 1.5 0 1 1 0-3 1.5 1.5 0 0 1 0 3zm13 0a1.5 1.5 0 1 1 0-3 1.5 1.5 0 0 1 0 3zm13 0a1.5 1.5 0 1 1 0-3 1.5 1.5 0 0 1 0 3zm13 0a1.5 1.5 0 1 1 0-3 1.5 1.5 0 0 1 0 3zm-442 13a1.5 1.5 0 1 1 0-3 1.5 1.5 0 0 1 0 3zm13 0a1.5 1.5 0 1 1 0-3 1.5 1.5 0 0 1 0 3zm13 0a1.5 1.5 0 1 1 0-3 1.5 1.5 0 0 1 0 3zm13 0a1.5 1.5 0 1 1 0-3 1.5 1.5 0 0 1 0 3zm13 0a1.5 1.5 0 1 1 0-3 1.5 1.5 0 0 1 0 3zm13 0a1.5 1.5 0 1 1 0-3 1.5 1.5 0 0 1 0 3zm13 0a1.5 1.5 0 1 1 0-3 1.5 1.5 0 0 1 0 3zm13 0a1.5 1.5 0 1 1 0-3 1.5 1.5 0 0 1 0 3zm13 0a1.5 1.5 0 1 1 0-3 1.5 1.5 0 0 1 0 3zm13 0a1.5 1.5 0 1 1 0-3 1.5 1.5 0 0 1 0 3zm13 0a1.5 1.5 0 1 1 0-3 1.5 1.5 0 0 1 0 3zm13 0a1.5 1.5 0 1 1 0-3 1.5 1.5 0 0 1 0 3zm13 0a1.5 1.5 0 1 1 0-3 1.5 1.5 0 0 1 0 3zm13 0a1.5 1.5 0 1 1 0-3 1.5 1.5 0 0 1 0 3zm13 0a1.5 1.5 0 1 1 0-3 1.5 1.5 0 0 1 0 3zm13 0a1.5 1.5 0 1 1 0-3 1.5 1.5 0 0 1 0 3zm13 0a1.5 1.5 0 1 1 0-3 1.5 1.5 0 0 1 0 3zm13 0a1.5 1.5 0 1 1 0-3 1.5 1.5 0 0 1 0 3zm13 0a1.5 1.5 0 1 1 0-3 1.5 1.5 0 0 1 0 3zm13 0a1.5 1.5 0 1 1 0-3 1.5 1.5 0 0 1 0 3zm13 0a1.5 1.5 0 1 1 0-3 1.5 1.5 0 0 1 0 3zm13 0a1.5 1.5 0 1 1 0-3 1.5 1.5 0 0 1 0 3zm13 0a1.5 1.5 0 1 1 0-3 1.5 1.5 0 0 1 0 3zm13 0a1.5 1.5 0 1 1 0-3 1.5 1.5 0 0 1 0 3zm13 0a1.5 1.5 0 1 1 0-3 1.5 1.5 0 0 1 0 3zm13 0a1.5 1.5 0 1 1 0-3 1.5 1.5 0 0 1 0 3zm13 0a1.5 1.5 0 1 1 0-3 1.5 1.5 0 0 1 0 3zm13 0a1.5 1.5 0 1 1 0-3 1.5 1.5 0 0 1 0 3zm13 0a1.5 1.5 0 1 1 0-3 1.5 1.5 0 0 1 0 3zm13 0a1.5 1.5 0 1 1 0-3 1.5 1.5 0 0 1 0 3zm13 0a1.5 1.5 0 1 1 0-3 1.5 1.5 0 0 1 0 3zm13 0a1.5 1.5 0 1 1 0-3 1.5 1.5 0 0 1 0 3zm13 0a1.5 1.5 0 1 1 0-3 1.5 1.5 0 0 1 0 3zm13 0a1.5 1.5 0 1 1 0-3 1.5 1.5 0 0 1 0 3zm13 0a1.5 1.5 0 1 1 0-3 1.5 1.5 0 0 1 0 3zm-442 13a1.5 1.5 0 1 1 0-3 1.5 1.5 0 0 1 0 3zm13 0a1.5 1.5 0 1 1 0-3 1.5 1.5 0 0 1 0 3zm13 0a1.5 1.5 0 1 1 0-3 1.5 1.5 0 0 1 0 3zm13 0a1.5 1.5 0 1 1 0-3 1.5 1.5 0 0 1 0 3zm13 0a1.5 1.5 0 1 1 0-3 1.5 1.5 0 0 1 0 3zm13 0a1.5 1.5 0 1 1 0-3 1.5 1.5 0 0 1 0 3zm13 0a1.5 1.5 0 1 1 0-3 1.5 1.5 0 0 1 0 3zm13 0a1.5 1.5 0 1 1 0-3 1.5 1.5 0 0 1 0 3zm13 0a1.5 1.5 0 1 1 0-3 1.5 1.5 0 0 1 0 3zm13 0a1.5 1.5 0 1 1 0-3 1.5 1.5 0 0 1 0 3zm13 0a1.5 1.5 0 1 1 0-3 1.5 1.5 0 0 1 0 3zm13 0a1.5 1.5 0 1 1 0-3 1.5 1.5 0 0 1 0 3zm13 0a1.5 1.5 0 1 1 0-3 1.5 1.5 0 0 1 0 3zm13 0a1.5 1.5 0 1 1 0-3 1.5 1.5 0 0 1 0 3zm13 0a1.5 1.5 0 1 1 0-3 1.5 1.5 0 0 1 0 3zm13 0a1.5 1.5 0 1 1 0-3 1.5 1.5 0 0 1 0 3zm13 0a1.5 1.5 0 1 1 0-3 1.5 1.5 0 0 1 0 3zm13 0a1.5 1.5 0 1 1 0-3 1.5 1.5 0 0 1 0 3zm13 0a1.5 1.5 0 1 1 0-3 1.5 1.5 0 0 1 0 3zm13 0a1.5 1.5 0 1 1 0-3 1.5 1.5 0 0 1 0 3zm13 0a1.5 1.5 0 1 1 0-3 1.5 1.5 0 0 1 0 3zm13 0a1.5 1.5 0 1 1 0-3 1.5 1.5 0 0 1 0 3zm13 0a1.5 1.5 0 1 1 0-3 1.5 1.5 0 0 1 0 3zm13 0a1.5 1.5 0 1 1 0-3 1.5 1.5 0 0 1 0 3zm13 0a1.5 1.5 0 1 1 0-3 1.5 1.5 0 0 1 0 3zm13 0a1.5 1.5 0 1 1 0-3 1.5 1.5 0 0 1 0 3zm13 0a1.5 1.5 0 1 1 0-3 1.5 1.5 0 0 1 0 3zm13 0a1.5 1.5 0 1 1 0-3 1.5 1.5 0 0 1 0 3zm13 0a1.5 1.5 0 1 1 0-3 1.5 1.5 0 0 1 0 3zm13 0a1.5 1.5 0 1 1 0-3 1.5 1.5 0 0 1 0 3zm13 0a1.5 1.5 0 1 1 0-3 1.5 1.5 0 0 1 0 3zm13 0a1.5 1.5 0 1 1 0-3 1.5 1.5 0 0 1 0 3zm13 0a1.5 1.5 0 1 1 0-3 1.5 1.5 0 0 1 0 3zm13 0a1.5 1.5 0 1 1 0-3 1.5 1.5 0 0 1 0 3zm13 0a1.5 1.5 0 1 1 0-3 1.5 1.5 0 0 1 0 3zm-442 13a1.5 1.5 0 1 1 0-3 1.5 1.5 0 0 1 0 3zm13 0a1.5 1.5 0 1 1 0-3 1.5 1.5 0 0 1 0 3zm13 0a1.5 1.5 0 1 1 0-3 1.5 1.5 0 0 1 0 3zm13 0a1.5 1.5 0 1 1 0-3 1.5 1.5 0 0 1 0 3zm13 0a1.5 1.5 0 1 1 0-3 1.5 1.5 0 0 1 0 3zm13 0a1.5 1.5 0 1 1 0-3 1.5 1.5 0 0 1 0 3zm13 0a1.5 1.5 0 1 1 0-3 1.5 1.5 0 0 1 0 3zm13 0a1.5 1.5 0 1 1 0-3 1.5 1.5 0 0 1 0 3zm13 0a1.5 1.5 0 1 1 0-3 1.5 1.5 0 0 1 0 3zm13 0a1.5 1.5 0 1 1 0-3 1.5 1.5 0 0 1 0 3zm13 0a1.5 1.5 0 1 1 0-3 1.5 1.5 0 0 1 0 3zm13 0a1.5 1.5 0 1 1 0-3 1.5 1.5 0 0 1 0 3zm13 0a1.5 1.5 0 1 1 0-3 1.5 1.5 0 0 1 0 3zm13 0a1.5 1.5 0 1 1 0-3 1.5 1.5 0 0 1 0 3zm13 0a1.5 1.5 0 1 1 0-3 1.5 1.5 0 0 1 0 3zm13 0a1.5 1.5 0 1 1 0-3 1.5 1.5 0 0 1 0 3zm13 0a1.5 1.5 0 1 1 0-3 1.5 1.5 0 0 1 0 3zm13 0a1.5 1.5 0 1 1 0-3 1.5 1.5 0 0 1 0 3zm13 0a1.5 1.5 0 1 1 0-3 1.5 1.5 0 0 1 0 3zm13 0a1.5 1.5 0 1 1 0-3 1.5 1.5 0 0 1 0 3zm13 0a1.5 1.5 0 1 1 0-3 1.5 1.5 0 0 1 0 3zm13 0a1.5 1.5 0 1 1 0-3 1.5 1.5 0 0 1 0 3zm13 0a1.5 1.5 0 1 1 0-3 1.5 1.5 0 0 1 0 3zm13 0a1.5 1.5 0 1 1 0-3 1.5 1.5 0 0 1 0 3zm13 0a1.5 1.5 0 1 1 0-3 1.5 1.5 0 0 1 0 3zm13 0a1.5 1.5 0 1 1 0-3 1.5 1.5 0 0 1 0 3zm13 0a1.5 1.5 0 1 1 0-3 1.5 1.5 0 0 1 0 3zm13 0a1.5 1.5 0 1 1 0-3 1.5 1.5 0 0 1 0 3zm13 0a1.5 1.5 0 1 1 0-3 1.5 1.5 0 0 1 0 3zm13 0a1.5 1.5 0 1 1 0-3 1.5 1.5 0 0 1 0 3zm13 0a1.5 1.5 0 1 1 0-3 1.5 1.5 0 0 1 0 3zm13 0a1.5 1.5 0 1 1 0-3 1.5 1.5 0 0 1 0 3zm13 0a1.5 1.5 0 1 1 0-3 1.5 1.5 0 0 1 0 3zm13 0a1.5 1.5 0 1 1 0-3 1.5 1.5 0 0 1 0 3zm13 0a1.5 1.5 0 1 1 0-3 1.5 1.5 0 0 1 0 3zm-442 13a1.5 1.5 0 1 1 0-3 1.5 1.5 0 0 1 0 3zm13 0a1.5 1.5 0 1 1 0-3 1.5 1.5 0 0 1 0 3zm13 0a1.5 1.5 0 1 1 0-3 1.5 1.5 0 0 1 0 3zm13 0a1.5 1.5 0 1 1 0-3 1.5 1.5 0 0 1 0 3zm13 0a1.5 1.5 0 1 1 0-3 1.5 1.5 0 0 1 0 3zm13 0a1.5 1.5 0 1 1 0-3 1.5 1.5 0 0 1 0 3zm13 0a1.5 1.5 0 1 1 0-3 1.5 1.5 0 0 1 0 3zm13 0a1.5 1.5 0 1 1 0-3 1.5 1.5 0 0 1 0 3zm13 0a1.5 1.5 0 1 1 0-3 1.5 1.5 0 0 1 0 3zm13 0a1.5 1.5 0 1 1 0-3 1.5 1.5 0 0 1 0 3zm13 0a1.5 1.5 0 1 1 0-3 1.5 1.5 0 0 1 0 3zm13 0a1.5 1.5 0 1 1 0-3 1.5 1.5 0 0 1 0 3zm13 0a1.5 1.5 0 1 1 0-3 1.5 1.5 0 0 1 0 3zm13 0a1.5 1.5 0 1 1 0-3 1.5 1.5 0 0 1 0 3zm13 0a1.5 1.5 0 1 1 0-3 1.5 1.5 0 0 1 0 3zm13 0a1.5 1.5 0 1 1 0-3 1.5 1.5 0 0 1 0 3zm13 0a1.5 1.5 0 1 1 0-3 1.5 1.5 0 0 1 0 3zm13 0a1.5 1.5 0 1 1 0-3 1.5 1.5 0 0 1 0 3zm13 0a1.5 1.5 0 1 1 0-3 1.5 1.5 0 0 1 0 3zm13 0a1.5 1.5 0 1 1 0-3 1.5 1.5 0 0 1 0 3zm13 0a1.5 1.5 0 1 1 0-3 1.5 1.5 0 0 1 0 3zm13 0a1.5 1.5 0 1 1 0-3 1.5 1.5 0 0 1 0 3zm13 0a1.5 1.5 0 1 1 0-3 1.5 1.5 0 0 1 0 3zm13 0a1.5 1.5 0 1 1 0-3 1.5 1.5 0 0 1 0 3zm13 0a1.5 1.5 0 1 1 0-3 1.5 1.5 0 0 1 0 3zm13 0a1.5 1.5 0 1 1 0-3 1.5 1.5 0 0 1 0 3zm13 0a1.5 1.5 0 1 1 0-3 1.5 1.5 0 0 1 0 3zm13 0a1.5 1.5 0 1 1 0-3 1.5 1.5 0 0 1 0 3zm13 0a1.5 1.5 0 1 1 0-3 1.5 1.5 0 0 1 0 3zm13 0a1.5 1.5 0 1 1 0-3 1.5 1.5 0 0 1 0 3zm13 0a1.5 1.5 0 1 1 0-3 1.5 1.5 0 0 1 0 3zm13 0a1.5 1.5 0 1 1 0-3 1.5 1.5 0 0 1 0 3zm13 0a1.5 1.5 0 1 1 0-3 1.5 1.5 0 0 1 0 3zm13 0a1.5 1.5 0 1 1 0-3 1.5 1.5 0 0 1 0 3zm13 0a1.5 1.5 0 1 1 0-3 1.5 1.5 0 0 1 0 3z" fill="#FFC200" opacity=".7" mask="url(#i)"/>
            </g>
        </g>
        <g mask="url(#e)">
            <g transform="translate(228 150)">
                <use fill="#000" filter="url(#j)" xlink:href="#k"/>
                <use fill="#FFF" xlink:href="#k"/>
                <rect fill="#DBE2E9" x="25" y="285" width="59" height="9" rx="4"/>
                <rect fill="#DBE2E9" x="25" y="299" width="39" height="9" rx="4"/>
                <path d="M244.5 42a2.5 2.5 0 1 1 0-5 2.5 2.5 0 0 1 0 5zm8 0a2.5 2.5 0 1 1 0-5 2.5 2.5 0 0 1 0 5zm8 0a2.5 2.5 0 1 1 0-5 2.5 2.5 0 0 1 0 5z" fill="#DBE2E9"/>
                <rect fill="#DBE2E9" x="25" y="189" width="72" height="72" rx="4"/>
                <g transform="translate(39 203)" stroke-width="2.5">
                    <circle stroke="#9EB1C4" cx="22" cy="22" r="21"/>
                    <path d="M21.633 1.003C10.037 1.206.801 10.77 1.003 22.367c.203 11.596 9.767 20.832 21.364 20.63 11.596-.203 20.832-9.767 20.63-21.364a20.908 20.908 0 0 0-4.484-12.608" stroke="#216FD4" stroke-linecap="round"/>
                </g>
                <rect fill="#DBE2E9" x="107" y="189" width="72" height="72" rx="4"/>
                <g transform="translate(121 203)" stroke-width="2.5">
                    <circle stroke="#9EB1C4" cx="22" cy="22" r="21"/>
                    <path d="M21.633 1.003C10.037 1.206.801 10.77 1.003 22.367c.203 11.596 9.767 20.832 21.364 20.63 11.596-.203 20.832-9.767 20.63-21.364a21.103 21.103 0 0 0-.47-4.082" stroke="#18CCD5" stroke-linecap="round"/>
                </g>
                <rect fill="#DBE2E9" x="189" y="189" width="72" height="72" rx="4"/>
                <g transform="translate(203 203)" stroke-width="2.5">
                    <circle stroke="#9EB1C4" cx="22" cy="22" r="21"/>
                    <path d="M21.633 1.003C10.037 1.206.801 10.77 1.003 22.367c.203 11.596 9.767 20.832 21.364 20.63 11.596-.203 20.832-9.767 20.63-21.364-.145-8.32-5.11-15.425-12.187-18.7" stroke="#A94FDD" stroke-linecap="round"/>
                </g>
                <g fill-rule="nonzero" transform="translate(206 100)">
                    <rect fill="#9FB2C5" x="10" y="28" width="5" height="32" rx="2.5"/>
                    <rect fill="#9FB2C5" y="45" width="5" height="15" rx="2.5"/>
                    <rect fill="#9FB2C5" x="20" y="16" width="5" height="44" rx="2.5"/>
                    <rect fill="#9FB2C5" x="30" y="9" width="5" height="51" rx="2.5"/>
                    <rect fill="#9FB2C5" x="40" y="19" width="5" height="41" rx="2.5"/>
                    <rect fill="#9FB2C5" x="50" width="5" height="60" rx="2.5"/>
                    <path d="M10 48h5v9.5a2.5 2.5 0 1 1-5 0V48zm10-6h5v15.5a2.5 2.5 0 1 1-5 0V42zm10-8h5v23.5a2.5 2.5 0 1 1-5 0V34zm10 4h5v19.5a2.5 2.5 0 1 1-5 0V38zm10-14h5v33.5a2.5 2.5 0 1 1-5 0V24z" fill="#8BC640"/>
                </g>
                <rect fill="#8BC640" fill-rule="nonzero" x="181" y="285" width="82" height="30" rx="4"/>
                <g transform="translate(25 25)">
                    <mask id="m" fill="#fff">
                        <use xlink:href="#l"/>
                    </mask>
                    <use fill="#DBE2E9" xlink:href="#l"/>
                    <g mask="url(#m)" fill="#9FB2C5" fill-rule="nonzero">
                        <path d="M22.5 28.125c-2.287 0-4.239-.824-5.857-2.472-1.618-1.648-2.427-3.636-2.427-5.966 0-2.329.809-4.317 2.427-5.965 1.618-1.648 3.57-2.472 5.857-2.472 2.287 0 4.239.824 5.857 2.472 1.618 1.648 2.427 3.636 2.427 5.965 0 2.33-.809 4.318-2.427 5.966-1.618 1.648-3.57 2.472-5.857 2.472zm15.111 8.91c.051.74.077 1.498.077 2.275 0 1.757-.525 3.145-1.576 4.163C35.062 44.491 33.667 45 31.927 45H13.073c-1.74 0-3.136-.509-4.186-1.527-1.05-1.018-1.575-2.406-1.575-4.163 0-.777.026-1.535.076-2.275s.151-1.538.302-2.395.342-1.652.572-2.384c.23-.732.54-1.447.927-2.143a7.713 7.713 0 0 1 1.338-1.78 5.617 5.617 0 0 1 1.844-1.175c.726-.293 1.528-.44 2.405-.44.13 0 .432.158.907.473.474.315 1.01.667 1.606 1.055.597.388 1.374.74 2.33 1.054a9.155 9.155 0 0 0 2.88.473c.964 0 1.924-.158 2.88-.473.956-.314 1.733-.666 2.33-1.054s1.133-.74 1.607-1.055c.475-.315.777-.472.906-.472.877 0 1.68.146 2.406.44a5.6 5.6 0 0 1 1.844 1.175c.504.49.95 1.084 1.338 1.78a11.4 11.4 0 0 1 .927 2.142c.23.732.421 1.527.572 2.384.151.857.252 1.655.302 2.395z"/>
                    </g>
                </g>
                <g transform="translate(85 33)">
                    <rect fill="#FFC200" width="101" height="12" rx="4"/>
                    <rect fill="#DBE2E9" y="20" width="74" height="9" rx="4"/>
                </g>
                <g transform="translate(30 100)" fill="#DBE2E9">
                    <rect width="132" height="12" rx="4"/>
                    <rect y="20" width="107" height="9" rx="4"/>
                    <rect y="35" width="116" height="9" rx="4"/>
                    <rect y="50" width="107" height="9" rx="4"/>
                </g>
                <rect fill="#9CAEC1" x="51" y="219" width="20" height="6" rx="2"/>
                <rect fill="#9CAEC1" x="53" y="227" width="16" height="4" rx="2"/>
                <rect fill="#9CAEC1" x="133" y="219" width="20" height="6" rx="2"/>
                <rect fill="#9CAEC1" x="135" y="227" width="16" height="4" rx="2"/>
                <rect fill="#9CAEC1" x="215" y="219" width="20" height="6" rx="2"/>
                <rect fill="#9CAEC1" x="217" y="227" width="16" height="4" rx="2"/>
            </g>
        </g>
        <path fill="#8BC640" mask="url(#e)" d="M693.461 484.753L688 467l-13 16.627z"/>
        <path fill="#FFC200" mask="url(#e)" transform="rotate(-166 150.23 448.876)" d="M161.23 459.876l-6.507-22-15.492 20.606z"/>
        <g mask="url(#e)">
            <g transform="translate(96 236)">
                <use fill="#000" filter="url(#n)" xlink:href="#o"/>
                <use fill="#FFF" xlink:href="#o"/>
                <rect fill="#DBE2E9" x="93" y="21" width="107" height="9" rx="4"/>
                <rect fill="#DBE2E9" x="93" y="35" width="67" height="9" rx="4"/>
                <g transform="translate(93 54)" fill="#DBE2E9">
                    <rect width="6" height="6" rx="3"/>
                    <rect x="11" width="26" height="6" rx="3"/>
                    <rect y="13" width="6" height="6" rx="3"/>
                    <rect x="11" y="13" width="33" height="6" rx="3"/>
                    <rect x="56" width="6" height="6" rx="3"/>
                    <rect x="67" width="26" height="6" rx="3"/>
                </g>
                <g transform="translate(25 21)">
                    <mask id="q" fill="#fff">
                        <use xlink:href="#p"/>
                    </mask>
                    <use fill="#DBE2E9" xlink:href="#p"/>
                    <path fill="#8BC640" fill-rule="nonzero" mask="url(#q)" d="M26.5 26.5V-8.66l34.11 25.95L53 44.578z"/>
                    <path fill="#FFC200" mask="url(#q)" d="M26.5 26.5L-1.344 39.006V11.748L26.5-7.357z"/>
                </g>
                <path fill="#DBE2E9" d="M43.14 41.937l-13-24-13 16.627z"/>
            </g>
        </g>
        <g mask="url(#e)">
            <g transform="translate(561 556)">
                <use fill="#000" filter="url(#r)" xlink:href="#s"/>
                <use fill="#FFF" xlink:href="#s"/>
                <rect fill="#DBE2E9" x="25" y="90" width="59" height="9" rx="4"/>
                <rect fill="#DBE2E9" x="25" y="104" width="39" height="9" rx="4"/>
                <rect fill="#DBE2E9" x="104" y="90" width="59" height="9" rx="4"/>
                <rect fill="#DBE2E9" x="104" y="104" width="39" height="9" rx="4"/>
                <rect fill="#DBE2E9" x="183" y="90" width="59" height="9" rx="4"/>
                <rect fill="#DBE2E9" x="183" y="104" width="39" height="9" rx="4"/>
                <g transform="translate(25 25)">
                    <mask id="u" fill="#fff">
                        <use xlink:href="#t"/>
                    </mask>
                    <use fill="#DBE2E9" xlink:href="#t"/>
                    <g mask="url(#u)" fill="#9FB2C5" fill-rule="nonzero">
                        <path d="M22.5 28.125c-2.287 0-4.239-.824-5.857-2.472-1.618-1.648-2.427-3.636-2.427-5.966 0-2.329.809-4.317 2.427-5.965 1.618-1.648 3.57-2.472 5.857-2.472 2.287 0 4.239.824 5.857 2.472 1.618 1.648 2.427 3.636 2.427 5.965 0 2.33-.809 4.318-2.427 5.966-1.618 1.648-3.57 2.472-5.857 2.472zm15.111 8.91c.051.74.077 1.498.077 2.275 0 1.757-.525 3.145-1.576 4.163C35.062 44.491 33.667 45 31.927 45H13.073c-1.74 0-3.136-.509-4.186-1.527-1.05-1.018-1.575-2.406-1.575-4.163 0-.777.026-1.535.076-2.275s.151-1.538.302-2.395.342-1.652.572-2.384c.23-.732.54-1.447.927-2.143a7.713 7.713 0 0 1 1.338-1.78 5.617 5.617 0 0 1 1.844-1.175c.726-.293 1.528-.44 2.405-.44.13 0 .432.158.907.473.474.315 1.01.667 1.606 1.055.597.388 1.374.74 2.33 1.054a9.155 9.155 0 0 0 2.88.473c.964 0 1.924-.158 2.88-.473.956-.314 1.733-.666 2.33-1.054s1.133-.74 1.607-1.055c.475-.315.777-.472.906-.472.877 0 1.68.146 2.406.44a5.6 5.6 0 0 1 1.844 1.175c.504.49.95 1.084 1.338 1.78a11.4 11.4 0 0 1 .927 2.142c.23.732.421 1.527.572 2.384.151.857.252 1.655.302 2.395z"/>
                    </g>
                </g>
                <g transform="translate(85 33)">
                    <rect fill="#FFC200" width="101" height="12" rx="4"/>
                    <rect fill="#DBE2E9" y="20" width="74" height="9" rx="4"/>
                </g>
            </g>
        </g>
    </g>
</svg>
