<svg width="112px" height="13px" viewBox="0 0 112 13" version="1.1" xmlns="http://www.w3.org/2000/svg" xmlns:xlink="http://www.w3.org/1999/xlink">
    <g id="Login" stroke="none" stroke-width="1" fill="none" fill-rule="evenodd">
        <g id="Log-in" transform="translate(-80.000000, -87.000000)" fill-rule="nonzero">
            <g id="Asset-1" transform="translate(80.000000, 87.000000)">
                <polygon id="Path" fill="#8DC640" points="11.146 3.696 6.972 9.26 6.498 9.26 2.416 3.678 2.416 13 0 13 0 0.182 2.782 0.182 6.782 5.69 10.8 0.182 13.562 0.182 13.562 13 11.146 13"></polygon>
                <polygon id="Path" fill="#8DC640" points="24.8 0.146 27.216 0.146 27.216 12.974 25.716 12.974 25.716 13 18.98 4.336 18.98 12.974 16.564 12.974 16.564 0.164 18.522 0.164 24.8 8.106"></polygon>
                <polygon id="Path" fill="#8DC640" points="37.642 0.164 35.008 0.164 29.26 12.974 31.878 12.974 36.326 2.854 40.754 12.974 43.39 12.974"></polygon>
                <path d="M63.384,11 C64.528,9.83 65.162,8.13 65.122,6.334 C65.05,3.264 63.044,0.166 58.722,0.166 L54.384,0.166 L54.384,12.8 L58.72,12.8 C60.626,12.8 62.238,12.18 63.384,11 Z M55.712,1.45 L58.712,1.45 C62.148,1.45 63.736,3.912 63.786,6.352 C63.8378698,7.73804869 63.3338508,9.08737948 62.386,10.1 C61.482,11.022 60.212,11.5 58.714,11.5 L55.714,11.5 L55.712,1.45 Z" id="Shape" fill="#4D4D4E"></path>
                <polygon id="Path" fill="#4D4D4E" points="76.438 11.508 68.708 11.508 68.708 7.064 75.878 7.064 75.878 5.824 68.708 5.824 68.708 1.45 76.228 1.45 76.228 0.174 67.398 0.174 67.398 12.8 76.438 12.8"></polygon>
                <polygon id="Path" fill="#4D4D4E" points="84.242 0.174 82.962 0.174 77.298 12.8 78.732 12.8 80.608 8.536 80.598 8.536 83.594 1.748 88.472 12.8 89.906 12.8"></polygon>
                <polygon id="Path" fill="#4D4D4E" points="93.02 0.174 91.692 0.174 91.692 12.8 99.91 12.8 99.91 11.526 93.02 11.526"></polygon>
                <path d="M106.466,5.696 L106.332,5.67 C104.166,5.27 102.744,4.9 102.744,3.55 C102.744,1.322 105.9,1.258 106.258,1.258 C107.604,1.274 108.966,1.478 109.806,2.83 L109.904,2.988 L111,2.334 L110.888,2.166 C109.694,0.368 108.172,0 106.26,0 C104.592,0 103.098,0.508 102.26,1.36 C101.680067,1.95096588 101.372752,2.75694366 101.412,3.584 C101.412,6.004 103.9,6.492 106.098,6.92 C108.008,7.286 109.982,7.662 109.966,9.356 C109.966,11.52 107.366,11.756 106.256,11.756 C104.796,11.756 102.95,11.028 102.256,9.64 L102.17,9.47 L100.988,10.07 L101.074,10.242 C102.098,12.268 104.426,13 106.26,13 C107.436,13 111.274,12.74 111.296,9.38 C111.296,6.624 108.84,6.152 106.466,5.696 Z" id="Path" fill="#4D4D4E"></path>
                <circle id="Oval" fill="#8DC640" cx="48.792" cy="11.368" r="1.626"></circle>
            </g>
        </g>
    </g>
</svg>
