<svg xmlns="http://www.w3.org/2000/svg" width="24" height="24" viewBox="0 0 24 24"><defs><clipPath id="7659a"><path d="M19.5 5.75v15c0 .701-.549 1.25-1.25 1.25H5.75c-.701 0-1.25-.549-1.25-1.25v-15c0-.689.561-1.25 1.25-1.25H7v1.875c0 1.034.841 1.875 1.875 1.875h6.25A1.877 1.877 0 0 0 17 6.375V4.5h1.25c.701 0 1.25.549 1.25 1.25zm-7.684 8.934a.625.625 0 0 0-.884 0L8.876 16.74l-.809-.807a.625.625 0 0 0-.884.884l1.25 1.25a.628.628 0 0 0 .886 0l2.5-2.5a.625.625 0 0 0-.002-.884zm0-5a.625.625 0 0 0-.884 0L8.876 11.74l-.809-.807a.625.625 0 0 0-.884.884l1.25 1.25a.628.628 0 0 0 .886 0l2.5-2.5a.625.625 0 0 0-.002-.884zM17 16.375a.625.625 0 0 0-.625-.625h-2.5a.625.625 0 0 0 0 1.25h2.5c.345 0 .625-.28.625-.625zm0-5a.625.625 0 0 0-.625-.625h-2.5a.625.625 0 0 0 0 1.25h2.5c.345 0 .625-.28.625-.625zm-1.25-7.5v2.5c0 .345-.28.625-.625.625h-6.25a.625.625 0 0 1-.625-.625v-2.5c0-.345.28-.625.625-.625h1.356A1.88 1.88 0 0 1 12 2c.815 0 1.51.522 1.768 1.25h1.357c.345 0 .625.28.625.625z"/></clipPath></defs><g><g><g/><g><path d="M19.5 5.75v15c0 .701-.549 1.25-1.25 1.25H5.75c-.701 0-1.25-.549-1.25-1.25v-15c0-.689.561-1.25 1.25-1.25H7v1.875c0 1.034.841 1.875 1.875 1.875h6.25A1.877 1.877 0 0 0 17 6.375V4.5h1.25c.701 0 1.25.549 1.25 1.25zm-7.684 8.934a.625.625 0 0 0-.884 0L8.876 16.74l-.809-.807a.625.625 0 0 0-.884.884l1.25 1.25a.628.628 0 0 0 .886 0l2.5-2.5a.625.625 0 0 0-.002-.884zm0-5a.625.625 0 0 0-.884 0L8.876 11.74l-.809-.807a.625.625 0 0 0-.884.884l1.25 1.25a.628.628 0 0 0 .886 0l2.5-2.5a.625.625 0 0 0-.002-.884zM17 16.375a.625.625 0 0 0-.625-.625h-2.5a.625.625 0 0 0 0 1.25h2.5c.345 0 .625-.28.625-.625zm0-5a.625.625 0 0 0-.625-.625h-2.5a.625.625 0 0 0 0 1.25h2.5c.345 0 .625-.28.625-.625zm-1.25-7.5v2.5c0 .345-.28.625-.625.625h-6.25a.625.625 0 0 1-.625-.625v-2.5c0-.345.28-.625.625-.625h1.356A1.88 1.88 0 0 1 12 2c.815 0 1.51.522 1.768 1.25h1.357c.345 0 .625.28.625.625z"/></g><g clip-path="url(#7659a)"><g><path fill="#99a9bb" d="M0 0h24v24H0z"/></g></g></g></g></svg>