<svg xmlns="http://www.w3.org/2000/svg" width="20" height="20" viewBox="0 0 20 20"><defs><clipPath id="e11sa"><path fill="#fff" d="M0 10C0 4.477 4.477 0 10 0s10 4.477 10 10-4.477 10-10 10S0 15.523 0 10z"/></clipPath><clipPath id="e11sb"><path fill="#fff" d="M9.25 5h1.5v4.25H15v1.5h-4.25V15h-1.5v-4.25H5v-1.5h4.25z"/></clipPath><clipPath id="e11sc"><path d="M9.25 5h1.5v4.25H15v1.5h-4.25V15h-1.5v-4.25H5v-1.5h4.25z"/></clipPath></defs><g><g><path fill="#fff" d="M0 10C0 4.477 4.477 0 10 0s10 4.477 10 10-4.477 10-10 10S0 15.523 0 10z"/><path fill="none" stroke="#8bc640" stroke-miterlimit="50" stroke-width="2" d="M0 10C0 4.477 4.477 0 10 0h0c5.523 0 10 4.477 10 10v0c0 5.523-4.477 10-10 10h0C4.477 20 0 15.523 0 10z" clip-path="url(&quot;#e11sa&quot;)"/></g><g><g><g/><g><path fill="#d8d8d8" d="M9.25 5h1.5v4.25H15v1.5h-4.25V15h-1.5v-4.25H5v-1.5h4.25z"/><path fill="none" stroke="#979797" stroke-miterlimit="50" stroke-width="2" d="M9.25 5h1.5v4.25H15v1.5h-4.25V15h-1.5v-4.25H5v-1.5h4.25z" clip-path="url(&quot;#e11sb&quot;)"/></g><g clip-path="url(#e11sc)"><g><path fill="#8bc640" d="M-2-2h24v24H-2z"/></g></g></g></g></g></svg>