<svg width="20px" height="18px" viewBox="0 0 20 18" version="1.1" xmlns="http://www.w3.org/2000/svg" xmlns:xlink="http://www.w3.org/1999/xlink">
    <defs>
        <path d="M8.82939145,9.63194726 L7.11415705,7.91508842 C6.86962105,8.07108662 6.6308783,8.2401316 6.39787476,8.42229197 C5.31515251,9.26875589 4.35378359,10.400596 3.51551235,11.8228692 L3.52295469,11.8070986 C3.55263923,11.7536879 3.55826548,11.7528719 3.59315292,11.8112811 C5.67345233,15.2941579 8.52626742,17 12.2316915,17 C13.2741196,17 14.2459824,16.8650246 15.1494552,16.5962342 C15.3116075,16.5479926 15.4716233,16.4954217 15.6295203,16.4385163 L14.0215706,14.8290437 C12.5220882,15.8165725 10.4854272,15.6089109 9.21984885,14.2517442 C8.01526937,12.9599909 7.89824786,11.0440373 8.82939145,9.63194726 Z M9.9280649,10.7316612 C9.54572393,11.5403316 9.66967133,12.534701 10.3168794,13.2287467 C11.0013431,13.9627441 12.0617068,14.1363619 12.9230921,13.7295249 L9.9280649,10.7316612 Z M16.7857461,17.5958371 C16.3989702,17.7648197 16.0010154,17.9101714 15.5920588,18.0318393 C14.5416878,18.3443332 13.4208403,18.5 12.2316915,18.5 C7.96833288,18.5 4.62311884,16.4997277 2.27614263,12.5703755 C1.98196955,12.0778654 1.8906615,11.5901149 2.16140096,11.1269048 C3.09870866,9.52325827 4.19330814,8.22874925 5.44700678,7.2486173 C5.63646994,7.10049646 5.82950165,6.95961108 6.02608355,6.82598446 L3.48258696,4.28007902 C3.18983241,3.9870472 3.19005717,3.51217352 3.48308898,3.21941897 C3.7761208,2.92666441 4.25099448,2.92688917 4.54374904,3.21992098 L20.5286104,19.219921 C20.8213649,19.5129528 20.8211402,19.9878265 20.5281084,20.280581 C20.2350765,20.5733356 19.7602029,20.5731108 19.4674483,20.280079 L16.7857473,17.5958383 Z M20.4846325,11.8231138 C18.3783836,8.24919774 15.4990023,6.5 11.7683085,6.5 C11.043282,6.5 10.352057,6.56602472 9.69399353,6.69761048 C9.28080443,6.78023138 8.87766654,6.51817003 8.79355986,6.11228007 C8.70945319,5.70639011 8.9762272,5.3103738 9.38941631,5.2277529 C10.1495211,5.07576307 10.9426986,5 11.7683085,5 C16.0829376,5 19.4661315,7.0678329 21.838599,11.1269048 C22.1093385,11.5901149 22.0180304,12.0778654 21.7238574,12.5703755 C21.0110079,13.7638417 20.206237,14.780408 19.3085275,15.6179762 C19.0027896,15.9032315 18.5195364,15.8910054 18.2291514,15.5906684 C17.9387663,15.2903315 17.9512123,14.8156152 18.2569502,14.5303599 C19.0470233,13.7932171 19.7639946,12.8875569 20.4068471,11.8112811 C20.4418557,11.752669 20.4473995,11.7536943 20.4773555,11.807657 L20.4846325,11.8231138 Z M15.763168,11.65 C15.763168,12.0642136 15.4273816,12.4 15.013168,12.4 C14.5989544,12.4 14.263168,12.0642136 14.263168,11.65 C14.263168,10.4073593 13.2558087,9.4 12.013168,9.4 C11.5989544,9.4 11.263168,9.06421356 11.263168,8.65 C11.263168,8.23578644 11.5989544,7.9 12.013168,7.9 C14.0842358,7.9 15.763168,9.57893219 15.763168,11.65 Z" id="path-1"></path>
    </defs>
    <g id="Login" stroke="none" stroke-width="1" fill="none" fill-rule="evenodd">
        <g id="Log-in" transform="translate(-403.000000, -404.000000)">
            <rect fill="" x="0" y="0" width="1440" height="800"></rect>
            <g id="Group" transform="translate(80.000000, 205.000000)">
                <g id="icons/functional/eye/blind" transform="translate(321.000000, 196.000000)">
                    <rect id="Rectangle" x="0" y="0" width="24" height="24"></rect>
                    <mask id="mask-2" fill="white">
                        <use xlink:href="#path-1"></use>
                    </mask>
                    <use id="Combined-Shape" fill="#C1C1C1" fill-rule="nonzero" xlink:href="#path-1"></use>
                    <g id="color/grey" mask="url(#mask-2)" fill="#99A9BB" fill-rule="evenodd">
                        <rect id="Rectangle" x="0" y="0" width="24" height="24"></rect>
                    </g>
                </g>
            </g>
        </g>
    </g>
</svg>