<svg xmlns="http://www.w3.org/2000/svg" width="24" height="24" viewBox="0 0 24 24"><defs><clipPath id="ebk1a"><path fill="#fff" d="M19 21h2l3 6 3-6h2l-4 8h-2z"/></clipPath><clipPath id="ebk1b"><path d="M19 21h2l3 6 3-6h2l-4 8h-2z"/></clipPath></defs><g><g transform="matrix(-1 0 0 1 48 0)"><g/><g transform="rotate(90 24 25)"><path fill="#d8d8d8" d="M19 21h2l3 6 3-6h2l-4 8h-2z"/><path fill="none" stroke="#979797" stroke-miterlimit="50" stroke-width="2" d="M19 21h2l3 6 3-6h2l-4 8h-2z" clip-path="url(&quot;#ebk1a&quot;)"/></g><g clip-path="url(#ebk1b)"><g><path fill="#99a9bb" d="M12 13h24v24H12z"/></g></g></g></g></svg>