<svg id="SVGDoc" width="24" height="24" xmlns="http://www.w3.org/2000/svg" version="1.1" xmlns:xlink="http://www.w3.org/1999/xlink" xmlns:avocode="https://avocode.com/" viewBox="0 0 24 24"><defs><clipPath id="clip-042D2286-03F8-3E93-1F76-3297DDB05F25"><path d="M4.5,10.53508c0,-3.60923 2.9041,-6.53508 6.48649,-6.53508c3.58239,0 6.48649,2.92585 6.48649,6.53508c0,1.75758 -0.68868,3.35312 -1.809,4.52763l3.61317,3.63176c0.29713,0.29866 0.29713,0.78288 0,1.08154c-0.29713,0.29866 -0.77887,0.29866 -1.076,0l-3.71715,-3.73628c-1.00919,0.65221 -2.20951,1.03042 -3.49751,1.03042c-3.58239,0 -6.48649,-2.92585 -6.48649,-6.53507zM16.00829,10.53507c0,-2.79423 -2.24834,-5.05941 -5.0218,-5.05941c-2.77346,0 -5.0218,2.26518 -5.0218,5.05941c0,2.79424 2.24834,5.05942 5.0218,5.05942c1.12143,0 2.157,-0.37034 2.99281,-0.99625c0.0207,-0.02737 0.04348,-0.05366 0.06834,-0.07865c0.0656,-0.06594 0.14021,-0.11732 0.21984,-0.15414c1.06611,-0.92777 1.74081,-2.29969 1.74081,-3.83038z" ></path></clipPath></defs><desc>Generated with Avocode.</desc><g><g><title>icon/functional/search</title><g><title>icon/functional/search</title><g><title>border</title></g><g><title>Combined Shape</title><path d="M4.5,10.53508c0,-3.60923 2.9041,-6.53508 6.48649,-6.53508c3.58239,0 6.48649,2.92585 6.48649,6.53508c0,1.75758 -0.68868,3.35312 -1.809,4.52763l3.61317,3.63176c0.29713,0.29866 0.29713,0.78288 0,1.08154c-0.29713,0.29866 -0.77887,0.29866 -1.076,0l-3.71715,-3.73628c-1.00919,0.65221 -2.20951,1.03042 -3.49751,1.03042c-3.58239,0 -6.48649,-2.92585 -6.48649,-6.53507zM16.00829,10.53507c0,-2.79423 -2.24834,-5.05941 -5.0218,-5.05941c-2.77346,0 -5.0218,2.26518 -5.0218,5.05941c0,2.79424 2.24834,5.05942 5.0218,5.05942c1.12143,0 2.157,-0.37034 2.99281,-0.99625c0.0207,-0.02737 0.04348,-0.05366 0.06834,-0.07865c0.0656,-0.06594 0.14021,-0.11732 0.21984,-0.15414c1.06611,-0.92777 1.74081,-2.29969 1.74081,-3.83038z" fill="#979797" fill-opacity="1"></path></g><g clip-path="url(#clip-042D2286-03F8-3E93-1F76-3297DDB05F25)"><title>color/grey</title><g><title>Rectangle</title><path d="M0,0v0h24v0v24v0h-24v0z" fill="#99a9bb" fill-opacity="1"></path></g></g></g></g></g></svg>
