<svg xmlns="http://www.w3.org/2000/svg" width="24" height="24" viewBox="0 0 24 24"><defs><clipPath id="xzhia"><path d="M12 15.92l-2.617-2.448a.85.85 0 0 0-1.146 0 .724.724 0 0 0 0 1.072l3.19 2.984a.85.85 0 0 0 1.146 0l3.19-2.984a.724.724 0 0 0 0-1.072.85.85 0 0 0-1.146 0zm2.617-5.392a.85.85 0 0 0 1.146 0 .724.724 0 0 0 0-1.072l-3.19-2.984a.85.85 0 0 0-1.146 0l-3.19 2.984a.724.724 0 0 0 0 1.072.85.85 0 0 0 1.146 0L12 8.08z"/></clipPath></defs><g><g><g><g/><g><path fill="#979797" d="M12 15.92l-2.617-2.448a.85.85 0 0 0-1.146 0 .724.724 0 0 0 0 1.072l3.19 2.984a.85.85 0 0 0 1.146 0l3.19-2.984a.724.724 0 0 0 0-1.072.85.85 0 0 0-1.146 0zm2.617-5.392a.85.85 0 0 0 1.146 0 .724.724 0 0 0 0-1.072l-3.19-2.984a.85.85 0 0 0-1.146 0l-3.19 2.984a.724.724 0 0 0 0 1.072.85.85 0 0 0 1.146 0L12 8.08z"/></g><g clip-path="url(#xzhia)"><g><path fill="#99a9bb" d="M0 0h24v24H0z"/></g></g></g></g></g></svg>