<svg xmlns="http://www.w3.org/2000/svg" width="24" height="24" viewBox="0 0 24 24"><defs><clipPath id="m44na"><path d="M13.5 10.5h3a1 1 0 0 1 1 1V14a1 1 0 0 1-1 1h-3a1 1 0 0 1-1-1v-2.5a1 1 0 0 1 1-1zM14 12v1.5h2V12zm-6.5-1.5h3a1 1 0 0 1 1 1V14a1 1 0 0 1-1 1h-3a1 1 0 0 1-1-1v-2.5a1 1 0 0 1 1-1zM8 12v1.5h2V12zm5.5-7h3a1 1 0 0 1 1 1v2.5a1 1 0 0 1-1 1h-3a1 1 0 0 1-1-1V6a1 1 0 0 1 1-1zm.5 1.5V8h2V6.5zM7.5 5h3a1 1 0 0 1 1 1v2.5a1 1 0 0 1-1 1h-3a1 1 0 0 1-1-1V6a1 1 0 0 1 1-1zM8 6.5V8h2V6.5zm8 14V18h-3.25v2.5zM8 18v2.5h3.25V18zM4 2h16a1 1 0 0 1 1 1v17.5h.25a.75.75 0 0 1 0 1.5H2.75a.75.75 0 0 1 0-1.5H3V3a1 1 0 0 1 1-1zm.5 1.5v17h2v-3a1 1 0 0 1 1-1h9a1 1 0 0 1 1 1v3h2v-17z"/></clipPath></defs><g><g><g><g/><g><path fill="#979797" d="M13.5 10.5h3a1 1 0 0 1 1 1V14a1 1 0 0 1-1 1h-3a1 1 0 0 1-1-1v-2.5a1 1 0 0 1 1-1zM14 12v1.5h2V12zm-6.5-1.5h3a1 1 0 0 1 1 1V14a1 1 0 0 1-1 1h-3a1 1 0 0 1-1-1v-2.5a1 1 0 0 1 1-1zM8 12v1.5h2V12zm5.5-7h3a1 1 0 0 1 1 1v2.5a1 1 0 0 1-1 1h-3a1 1 0 0 1-1-1V6a1 1 0 0 1 1-1zm.5 1.5V8h2V6.5zM7.5 5h3a1 1 0 0 1 1 1v2.5a1 1 0 0 1-1 1h-3a1 1 0 0 1-1-1V6a1 1 0 0 1 1-1zM8 6.5V8h2V6.5zm8 14V18h-3.25v2.5zM8 18v2.5h3.25V18zM4 2h16a1 1 0 0 1 1 1v17.5h.25a.75.75 0 0 1 0 1.5H2.75a.75.75 0 0 1 0-1.5H3V3a1 1 0 0 1 1-1zm.5 1.5v17h2v-3a1 1 0 0 1 1-1h9a1 1 0 0 1 1 1v3h2v-17z"/></g><g clip-path="url(#m44na)"><g><path fill="#99a9bb" d="M0 0h24v24H0z"/></g></g></g></g></g></svg>